<?xml version="1.0" encoding="UTF-8" standalone="no"?>
<svg width="40px" height="46px" viewBox="0 0 40 46" version="1.1" xmlns="http://www.w3.org/2000/svg" xmlns:xlink="http://www.w3.org/1999/xlink" xmlns:sketch="http://www.bohemiancoding.com/sketch/ns">
    <!-- Generator: Sketch 3.5.2 (25235) - http://www.bohemiancoding.com/sketch -->
    <title>alfa_big</title>
    <desc>Created with Sketch.</desc>
    <defs></defs>
    <g id="Page-1" stroke="none" stroke-width="1" fill="none" fill-rule="evenodd" sketch:type="MSPage">
        <g id="Desktop_v1" sketch:type="MSArtboardGroup" transform="translate(-329.000000, -1950.000000)">
            <g id="hr" sketch:type="MSLayerGroup" transform="translate(324.000000, 1029.000000)"></g>
            <g id="Интернет-банкинг" sketch:type="MSLayerGroup" transform="translate(329.000000, 1696.000000)" fill="#F25241">
                <g id="альфа" transform="translate(0.000000, 254.000000)" sketch:type="MSShapeGroup">
                    <g id="alfa" transform="translate(7.999836, 5.000000)">
                        <path d="M0.383334603,31 C0.171805845,31 -0.00011627907,31.1704193 -0.00011627907,31.380904 L-0.00011627907,35.619096 C-0.00011627907,35.8307093 0.171805845,36 0.383334603,36 L24.6167262,36 C24.8288417,36 24.9998837,35.8307093 24.9998837,35.619096 L24.9998837,31.380904 C24.9998837,31.1704193 24.8288417,31 24.6167262,31 L0.383334603,31" id="Fill-4"></path>
                        <path d="M12.3855814,0.0676579281 C15.012907,0.0676579281 15.8390698,1.95647822 16.5288953,3.84646554 C16.8219186,4.64733235 23.6477907,23.4062879 23.8521512,23.9687911 C23.9085465,24.1251717 23.8719186,24.3851252 23.629186,24.4764444 C23.3873256,24.5686389 19.840814,25.9530152 19.6460465,26.0274127 C19.4492442,26.1003514 19.2286047,25.9909433 19.1562209,25.7963429 C19.0829651,25.6020342 17.6137791,21.5122161 17.4469186,21.0532858 L7.3344186,21.0532858 C7.16755814,21.5122161 5.68296512,25.6090364 5.61494186,25.7963429 C5.54604651,25.9836495 5.33296512,26.109104 5.12598837,26.0274127 C4.91930233,25.9442626 1.35593023,24.5575522 1.14110465,24.4764444 C0.939360465,24.3988376 0.848953488,24.1663091 0.919883721,23.9687911 C1.17017442,23.2653704 7.89226744,4.80867273 8.2355814,3.84646554 C8.90156977,1.98536195 9.75738372,0.0676579281 12.3855814,0.0676579281 Z M12.3643023,6.19366173 L8.94395349,16.4984397 L15.8381395,16.4984397 L12.4076163,6.19366173 L12.3643023,6.19366173 Z" id="Fill-1"></path>
                    </g>
                </g>
            </g>
        </g>
    </g>
</svg>