<?xml version="1.0" encoding="UTF-8"?>
<svg width="50px" height="31px" viewBox="0 0 50 31" version="1.1" xmlns="http://www.w3.org/2000/svg" xmlns:xlink="http://www.w3.org/1999/xlink">
    <!-- Generator: Sketch 40.2 (33826) - http://www.bohemiancoding.com/sketch -->
    <title>apple_pay</title>
    <desc>Created with Sketch.</desc>
    <defs>
        <rect id="path-1" x="0" y="0" width="48" height="29" rx="3"></rect>
        <mask id="mask-2" maskContentUnits="userSpaceOnUse" maskUnits="objectBoundingBox" x="0" y="0" width="48" height="29" fill="white">
            <use xlink:href="#path-1"></use>
        </mask>
    </defs>
    <g id="Page-1" stroke="none" stroke-width="1" fill="none" fill-rule="evenodd">
        <g id="01_Sposobi_Desktop" transform="translate(-563.000000, -308.000000)">
            <g id="про-меню" transform="translate(328.000000, 61.000000)">
                <g id="1" transform="translate(2.000000, 247.000000)">
                    <g id="Apple" transform="translate(234.000000, 1.000000)">
                        <use id="Rectangle" stroke="#0A0B09" mask="url(#mask-2)" stroke-width="2" xlink:href="#path-1"></use>
                        <path d="M40.8675823,11.4876079 L38.8899589,16.8657706 C38.7663986,17.1904452 38.650725,17.5177488 38.5455672,17.8365083 C38.4943028,17.9955594 38.4456674,18.1460665 38.3983464,18.2893439 L38.3608839,18.2893439 C38.3135629,18.1394941 38.263613,17.9837291 38.2097196,17.8194201 C38.1065335,17.5039468 37.9961179,17.1943886 37.8830733,16.8992896 L35.7680876,11.4876079 L34.6369843,11.4876079 L37.6628992,19.2679684 C37.7424248,19.4552807 37.7535978,19.5407214 37.7535978,19.5755549 C37.7535978,19.5860707 37.7496544,19.6498226 37.6615847,19.8864276 C37.4723007,20.3524079 37.2554128,20.7539792 37.0194651,21.0799683 C36.776945,21.4099008 36.5547992,21.6787103 36.3569711,21.8758811 C36.1275957,22.1059138 35.8896763,22.2945405 35.6484707,22.4371607 C35.4020071,22.5824099 35.1772324,22.7000552 34.9787471,22.788782 L34.864388,22.8400464 L35.2324402,23.7358592 L35.3494282,23.6924816 C35.4453847,23.6563336 35.6254674,23.5741791 35.8988776,23.4407602 C36.1749167,23.3047123 36.4805315,23.0891389 36.8065206,22.7979833 C37.0865032,22.5534915 37.3428252,22.2636504 37.5702289,21.9376613 C37.7936892,21.6169301 38.0171494,21.2403339 38.2366663,20.8223317 C38.4535542,20.4049868 38.6704421,19.9298051 38.8820721,19.4099314 C39.0937021,18.8874287 39.3211058,18.3038031 39.5557391,17.6761427 L42,11.4876079 L40.8675823,11.4876079 L40.8675823,11.4876079 Z M32.5962664,17.200961 C32.5962664,17.3140056 32.5686624,17.4691133 32.517398,17.6551111 C32.4523317,17.8489958 32.3570324,18.0402514 32.2328148,18.2229631 C32.1092544,18.403703 31.9541467,18.5693265 31.7707779,18.7145757 C31.5880662,18.8591676 31.3698639,18.9748411 31.1220859,19.0609391 C30.8743079,19.147037 30.5884102,19.1904146 30.2722796,19.1904146 C30.0810239,19.1904146 29.8937117,19.15821 29.7142862,19.0957726 C29.5368325,19.0326779 29.3790958,18.9386932 29.2443624,18.8144755 C29.109629,18.6909152 28.9992134,18.5305496 28.9144299,18.3373222 C28.8309609,18.1440947 28.7888978,17.9055181 28.7888978,17.6281644 C28.7888978,17.1740143 28.9104865,16.8053049 29.1503777,16.5358381 C29.3981557,16.2558555 29.7169151,16.0402821 30.0954831,15.8956902 C30.4819379,15.7464976 30.9117703,15.6492266 31.3724928,15.6045346 C31.7477746,15.5690438 32.1145123,15.5506412 32.4621902,15.5506412 C32.5075395,15.5506412 32.5522315,15.5506412 32.5962664,15.5512985 L32.5962664,17.200961 L32.5962664,17.200961 Z M33.672819,18.8545669 C33.661646,18.5259489 33.6563881,18.1960164 33.6563881,17.8673984 L33.6563881,14.639712 C33.6563881,14.2572006 33.6176112,13.8668024 33.5420291,13.4790331 C33.4651324,13.083377 33.3172543,12.7199255 33.1029954,12.3991943 C32.8874219,12.0758341 32.5857506,11.8083391 32.2084971,11.6052531 C31.8305863,11.4028244 31.3402882,11.2996383 30.7500902,11.2996383 C30.3189434,11.2996383 29.8976551,11.3561606 29.5000272,11.4665763 C29.0991132,11.5783064 28.7067433,11.7656187 28.330147,12.0232553 L28.2440491,12.0824065 L28.6022428,12.9203825 L28.7323755,12.8329701 C29.0057857,12.6482868 29.3133722,12.5017231 29.6498771,12.3965653 C29.9850675,12.2933793 30.326173,12.2408004 30.6666213,12.2408004 C31.1082839,12.2408004 31.4612197,12.320326 31.7129411,12.4787199 C31.9679487,12.6384282 32.1605188,12.8362563 32.2853937,13.0669461 C32.4148692,13.3055228 32.4996527,13.5592159 32.5371151,13.8227676 C32.5765493,14.096835 32.5962664,14.3419841 32.5962664,14.5529569 L32.5962664,14.6462844 C31.0248149,14.6390548 29.7977552,14.9006348 28.9821252,15.4257664 C28.1277183,15.9765302 27.6939425,16.7606128 27.6939425,17.7556682 C27.6939425,18.0415659 27.7452069,18.3307498 27.8464213,18.615333 C27.9489501,18.9045169 28.1047151,19.1621534 28.3084583,19.3829847 C28.5141731,19.606445 28.778382,19.7884994 29.0951698,19.9245473 C29.4113004,20.0619096 29.7819815,20.1315766 30.1966975,20.1315766 C30.5253155,20.1315766 30.8335592,20.0888563 31.1135418,20.007359 C31.3908954,19.9232328 31.6419596,19.8134744 31.8614764,19.676112 C32.0796788,19.5407214 32.2735634,19.3882426 32.4391869,19.2226191 C32.5141118,19.1496659 32.5778637,19.074741 32.6409584,19.0004733 L32.681707,19.0004733 L32.7796352,19.9429499 L33.8009801,19.9429499 L33.7733762,19.7911283 C33.7181683,19.4907714 33.6846493,19.1766126 33.672819,18.8545669 L33.672819,18.8545669 Z M25.4691985,13.5158384 C24.925007,13.9719602 24.1547263,14.2033073 23.1767591,14.2033073 C22.9086067,14.2033073 22.6542564,14.1921343 22.4209376,14.1697883 C22.2277102,14.1513856 22.048942,14.1211528 21.8879191,14.0804041 L21.8879191,9.14324681 C22.0279104,9.11761461 22.2014207,9.09329687 22.4051639,9.07095085 C22.6634577,9.04334693 22.9743303,9.02954497 23.3305523,9.02954497 C23.7722149,9.02954497 24.1797013,9.08212386 24.5418384,9.18662439 C24.9006893,9.28981046 25.2135336,9.4436037 25.4731419,9.64274622 C25.726835,9.83991704 25.927292,10.0962391 26.0659688,10.4051401 C26.2059601,10.7179844 26.2762843,11.0912945 26.2762843,11.5138973 C26.2762843,12.3919647 26.0041886,13.0656317 25.4691985,13.5158384 L25.4691985,13.5158384 Z M26.4432223,9.08146662 C26.1119753,8.76204989 25.6847719,8.51361466 25.1740995,8.34273328 C24.6673704,8.17448085 24.0587699,8.08904016 23.3653858,8.08904016 C22.8862607,8.08904016 22.4386829,8.11204342 22.03514,8.15804995 C21.6368549,8.20339924 21.266831,8.25532089 20.9349268,8.31250043 L20.8277973,8.33090304 L20.8277973,19.9429499 L21.8879191,19.9429499 L21.8879191,15.0511418 C22.2454555,15.1122648 22.6542564,15.1444693 23.1044631,15.1444693 C23.7045196,15.1444693 24.2664564,15.0675727 24.7758144,14.9164084 C25.2891158,14.7645869 25.7399797,14.5292964 26.1146043,14.2177665 C26.4905433,13.9055794 26.7909002,13.5145239 27.0097598,13.0551159 C27.2266477,12.5950506 27.3370634,12.0534881 27.3370634,11.4455448 C27.3370634,10.9421019 27.2568806,10.4892663 27.1017728,10.0995253 C26.9453507,9.70912707 26.7245193,9.36802155 26.4432223,9.08146662 L26.4432223,9.08146662 Z M15.8643506,13.9279254 C15.8498914,12.2769484 17.2116845,11.4816927 17.2747792,11.4422586 C16.5064702,10.3249573 15.3149012,10.1698495 14.8903267,10.1527614 C13.874897,10.0522043 12.9067883,10.7508462 12.3934869,10.7508462 C11.8782138,10.7508462 11.0855871,10.1685351 10.241696,10.1862805 C9.13491049,10.2020541 8.11422287,10.8297146 7.54374197,11.8201693 C6.39686503,13.8201387 7.25258639,16.7737575 8.37251665,18.3905583 C8.92065153,19.183185 9.57262971,20.0724254 10.4316372,20.0402208 C11.2590975,20.0080162 11.5686556,19.5052306 12.5676545,19.5052306 C13.5646816,19.5039162 13.8466358,20.0389063 14.7174736,20.0237899 C15.6060568,20.0047301 16.1706226,19.2147323 16.714814,18.4188194 C17.3418173,17.5026323 17.6007683,16.6120775 17.6145702,16.5667282 C17.5968248,16.5568696 15.8840677,15.9029198 15.8643506,13.9279254 L15.8643506,13.9279254 Z M13.9761114,9.08212386 C14.4309187,8.5307028 14.737848,7.76436555 14.654379,7 C13.9978001,7.02694668 13.2025445,7.43969093 12.7345924,7.98848304 C12.3113324,8.47680944 11.9445947,9.25694865 12.0451518,10.0055405 C12.7759983,10.0627201 13.521304,9.63354492 13.9761114,9.08212386 L13.9761114,9.08212386 Z" id="Fill-5" fill="#0A0A08"></path>
                    </g>
                </g>
            </g>
        </g>
    </g>
</svg>