<?xml version="1.0" encoding="utf-8"?>
<!-- Generator: Adobe Illustrator 15.0.2, SVG Export Plug-In . SVG Version: 6.00 Build 0)  -->
<!DOCTYPE svg PUBLIC "-//W3C//DTD SVG 1.0//EN" "http://www.w3.org/TR/2001/REC-SVG-20010904/DTD/svg10.dtd">
<svg version="1.0" id="Слой_1" xmlns="http://www.w3.org/2000/svg" xmlns:xlink="http://www.w3.org/1999/xlink" x="0px" y="0px"
	 width="84px" height="74px" viewBox="0 0 84 74" enable-background="new 0 0 84 74" xml:space="preserve">
<g>
	<circle fill="#DE3E76" stroke="#1F1A17" stroke-width="0.0076" cx="22.111" cy="65.964" r="8.04"/>
	<circle fill="#DE3E76" stroke="#1F1A17" stroke-width="0.0076" cx="64.322" cy="65.964" r="8.04"/>
	<path fill="#DE3E76" stroke="#1F1A17" stroke-width="0.0076" d="M80.403,6.689V6.668h-0.422h-2.216h-0.468H15.174l-3.123-6.672
		H9.045H4.266H0v7.677h6.766L20.004,35.97l-4.355,7.061v0.003c-0.992,1.342-1.579,3-1.579,4.797c0,4.448,3.597,8.061,8.04,8.084l0,0
		h0.043H72.36v-8.041H30.235H24.1l0,0c-0.555,0-1.006-0.568-1.006-1.004c0-0.261,0.379-0.787,0.373-0.804l3.104-5.229h36.352h4.085
		h4.639l1.716-4.081c0.236-0.442,0.436-0.912,0.592-1.404l9.604-22.834c0.282-0.549,0.44-1.172,0.44-1.831
		C84.001,8.611,82.426,6.9,80.403,6.689z M69.673,24.799l-2.637,5.936c-0.449,1.01-0.93,2.064-2.035,2.064h-6.028H27.398
		l-8.463-18.09h54.981L69.673,24.799z"/>
</g>
</svg>
