<svg xmlns="http://www.w3.org/2000/svg" width="210" height="257" viewBox="0 0 21000 25668.1" data-name="Layer 2" style="image-rendering:optimizeQuality;shape-rendering:geometricPrecision;text-rendering:geometricPrecision"><defs><style type="text/css">  
    .fil0 {fill:#B9BACA;fill-rule:nonzero}
   </style></defs><path class="fil0" d="M18377.9 7202.5c-622.1 0-1126.4 504.4-1126.4 1126.4l0 12606c-64.9 1144.8-1012.5 2040.2-2159.3 2040.2-34.9 0-70.3-1-104.8-2.6l-8989 0.2c-34.6 1.6-70 2.6-104.8 2.6-1146.8 0-2094.4-895.4-2159.3-2040.2l0-12606c0-622.1-504.4-1126.4-1126.4-1126.4-622.1 0-1126.4 504.4-1126.4 1126.4l0 12606c65.6 2388.8 2022.1 4291.8 4411.8 4291.8 35 0 70.6-0.5 105.1-1l8989.3-0.1c34.7 0.8 70.3 1.3 105.3 1.3 2389.6 0 4346-1903.1 4411.8-4291.7l0-12606.2c0-622.1-504.4-1126.4-1126.4-1126.4l-0.2-0.1z"/><path class="fil0" d="M19504.4 3823.2l-4505.8 0 0-2252.9c0-622.1-504.4-1126.4-1126.4-1126.4l-6758.6 0c-622.1 0-1126.4 504.4-1126.4 1126.4l0 2252.9-4505.8 0c-622.1 0-1126.4 504.4-1126.4 1126.4 0 622.1 504.4 1126.4 1126.4 1126.4l18023.1 0c622.1 0 1126.4-504.4 1126.4-1126.4 0-622.1-504.4-1126.4-1126.4-1126.4l0 0zm-11264.4 0l0-1126.4 4505.8 0 0 1126.4-4505.8 0z"/><path class="fil0" d="M9366.4 18466.9l0-7885.1c0-622.1-504.4-1126.4-1126.4-1126.4-622.1 0-1126.4 504.4-1126.4 1126.4l0 7885.1c0 622.1 504.4 1126.4 1126.4 1126.4 622.1 0 1126.4-504.4 1126.4-1126.4l0 0z"/><path class="fil0" d="M13872.2 18466.9l0-7885.1c0-622.1-504.4-1126.4-1126.4-1126.4-622.1 0-1126.4 504.4-1126.4 1126.4l0 7885.1c0 622.1 504.4 1126.4 1126.4 1126.4 622.1 0 1126.4-504.4 1126.4-1126.4l0 0z"/></svg>