<?xml version="1.0" encoding="UTF-8" standalone="no"?>
<svg width="110px" height="45px" viewBox="0 0 110 45" version="1.1" xmlns="http://www.w3.org/2000/svg" xmlns:xlink="http://www.w3.org/1999/xlink">
    <!-- Generator: Sketch 3.7.1 (28215) - http://www.bohemiancoding.com/sketch -->
    <title>евросеть</title>
    <desc>Created with Sketch.</desc>
    <defs></defs>
    <g id="Page-1" stroke="none" stroke-width="1" fill="none" fill-rule="evenodd">
        <g id="01_Sposobi_Desktop" transform="translate(-590.000000, -3795.000000)">
            <g id="Наличные" transform="translate(329.000000, 3695.000000)">
                <g id="6" transform="translate(1.000000, 100.000000)">
                    <g id="евросеть" transform="translate(264.000000, 10.000000)">
                        <polygon id="Fill-1" fill="#FFE62B" points="0 24.8194773 103 24.8194773 103 0.00020015546 0 0.00020015546"></polygon>
                        <g id="Group-18" transform="translate(6.404975, 6.301895)" fill="#030807">
                            <path d="M1.75840575,12.2169089 C0.807267003,12.2169089 0.0336661485,11.4649248 0.0336661485,10.5428086 L0.0336661485,1.87247435 C0.0336661485,0.949957831 0.807267003,0.199374854 1.75840575,0.199374854 L7.99244773,0.199374854 C8.82129149,0.199374854 9.49561524,0.895315391 9.49561524,1.75318169 C9.49561524,2.61024738 8.82129149,3.30798931 7.99244773,3.30798931 L3.48314536,3.30798931 L3.48314536,4.70167178 L7.08714458,4.70167178 C7.86815119,4.70167178 8.502644,5.35818169 8.502644,6.16520851 C8.502644,6.97183502 7.86815119,7.62974602 7.08714458,7.62974602 L3.48314536,7.62974602 L3.48314536,9.10709347 L7.99244773,9.10709347 C8.82129149,9.10709347 9.49561524,9.80383463 9.49561524,10.6621012 C9.49561524,11.5199675 8.82129149,12.2169089 7.99244773,12.2169089 L1.75840575,12.2169089 Z" id="Fill-2"></path>
                            <path d="M61.1924481,12.2169089 C60.2417097,12.2169089 59.4677085,11.4649248 59.4677085,10.5428086 L59.4677085,1.87247435 C59.4677085,0.949957831 60.2417097,0.199374854 61.1924481,0.199374854 L67.4258896,0.199374854 C68.2553339,0.199374854 68.9300579,0.895315391 68.9300579,1.75318169 C68.9300579,2.61024738 68.2553339,3.30798931 67.4258896,3.30798931 L62.9163871,3.30798931 L62.9163871,4.70167178 L66.5211869,4.70167178 C67.3015931,4.70167178 67.9366864,5.35818169 67.9366864,6.16520851 C67.9366864,6.97183502 67.3015931,7.62974602 66.5211869,7.62974602 L62.9163871,7.62974602 L62.9163871,9.10709347 L67.4258896,9.10709347 C68.2553339,9.10709347 68.9300579,9.80383463 68.9300579,10.6621012 C68.9300579,11.5199675 68.2553339,12.2169089 67.4258896,12.2169089 L61.1924481,12.2169089 Z" id="Fill-4"></path>
                            <path d="M25.6742412,6.07189604 L25.6742412,3.15422989 L27.4452167,3.15422989 C27.8028945,3.15422989 28.097123,3.23429207 28.3246998,3.39841955 C28.6453488,3.61919102 28.8080752,4.02710785 28.8080752,4.61216226 C28.8080752,5.22163564 28.6461494,5.62314749 28.3066858,5.84652099 C28.094521,5.99383541 27.795889,6.07189604 27.4452167,6.07189604 L25.6742412,6.07189604 Z M25.6742412,10.713301 L25.6742412,8.97595161 L27.9031724,8.97595161 C29.038254,8.97595161 29.9139341,8.70093801 30.6571113,8.11308142 C31.7063263,7.30725554 32.3083939,6.02165702 32.3083939,4.5859419 C32.3083939,3.20566984 31.7519617,1.9524965 30.7842101,1.15227497 C30.0198164,0.510576564 29.0496628,0.198334046 27.8181063,0.198334046 L23.9499019,0.198334046 C22.9987631,0.198334046 22.2251623,0.956723086 22.2251623,1.88924738 L22.2251623,10.713301 C22.2251623,11.6366182 22.9987631,12.3862003 23.9499019,12.3862003 C24.8850282,12.3862003 25.6742412,11.6198051 25.6742412,10.713301 L25.6742412,10.713301 Z" id="Fill-6"></path>
                            <path d="M84.8882126,9.28611251 L84.8882126,6.70911096 L86.5537062,6.70911096 C86.8839627,6.70911096 87.1633797,6.77716382 87.3667377,6.91046735 C87.67878,7.10341722 87.8290968,7.45909347 87.8290968,7.99771182 C87.8290968,8.51451321 87.67878,8.87599398 87.3741434,9.07274679 C87.1653813,9.2142567 86.8897672,9.28611251 86.5537062,9.28611251 L84.8882126,9.28611251 Z M86.9069806,12.2175894 C88.0730863,12.2175894 88.9932009,11.9215595 89.7149615,11.3140876 C90.634876,10.5538972 91.161485,9.36697532 91.161485,8.05815876 C91.161485,6.69890303 90.5906417,5.48135736 89.5988714,4.7185649 C88.8931232,4.16053148 88.0628784,3.90052954 86.9870428,3.90052954 L84.8882126,3.90052954 L84.8882126,1.70382336 C84.8882126,0.795517878 84.098199,0.0287223086 83.163473,0.0287223086 C82.2127346,0.0287223086 81.4389335,0.779705597 81.4389335,1.70382336 L81.4389335,10.5268762 C81.4389335,11.4585999 82.2127346,12.2175894 83.163473,12.2175894 L86.9069806,12.2175894 Z" id="Fill-8"></path>
                            <path d="M42.5021514,6.21634823 C42.5021514,7.92767742 41.3344444,9.12380645 39.6621455,9.12380645 C37.9802392,9.12380645 36.8047262,7.92767742 36.8047262,6.21634823 C36.8047262,4.5218321 38.0060593,3.29127633 39.6621455,3.29127633 C41.3344444,3.29127633 42.5021514,4.49401049 42.5021514,6.21634823 M46.1377752,6.21634823 C46.1377752,2.68940886 43.354013,0.0287423241 39.6621455,0.0287423241 C35.9606706,0.0287423241 33.1695027,2.68940886 33.1695027,6.21634823 C33.1695027,9.72467314 35.9606706,12.3685266 39.6621455,12.3685266 C43.354013,12.3685266 46.1377752,9.72467314 46.1377752,6.21634823" id="Fill-10"></path>
                            <path d="M76.9664197,10.7141817 L76.9664197,3.30802934 L79.1789382,3.30802934 C80.0163887,3.30802934 80.6989188,2.61128818 80.6989188,1.75302157 C80.6989188,0.911167703 80.0027781,0.199414885 79.1789382,0.199414885 L71.3046222,0.199414885 C70.4797816,0.199414885 69.7832406,0.911167703 69.7832406,1.75302157 C69.7832406,2.61128818 70.4659709,3.30802934 71.3046222,3.30802934 L73.5173408,3.30802934 L73.5173408,10.7141817 C73.5173408,11.6364981 74.2909417,12.387081 75.2420805,12.387081 C76.1768065,12.387081 76.9664197,11.619685 76.9664197,10.7141817" id="Fill-12"></path>
                            <path d="M57.161197,11.5794938 C57.8355208,11.1985979 58.0713039,10.705615 58.1493646,10.3591459 C58.2506432,9.91400019 58.1555694,9.45284201 57.8809561,9.06053731 C57.5697143,8.61599203 57.1033521,8.37220268 56.5681364,8.37220268 C56.312738,8.37220268 56.0501341,8.42804606 55.7965371,8.53893218 L55.5709619,8.65061893 C55.2076798,8.87519335 54.6150194,9.14079965 53.8566304,9.14079965 C52.1745239,9.14079965 50.9998115,7.94547124 50.9998115,6.2321405 C50.9998115,4.53762437 52.2011446,3.30806937 53.8566304,3.30806937 C54.4062573,3.30806937 54.9692946,3.47479887 55.5771667,3.81566362 L55.7082686,3.88171492 C55.9668694,3.99079965 56.2370793,4.04744365 56.4966809,4.04744365 C57.0306957,4.04744365 57.5030626,3.8112602 57.8253129,3.38072581 C58.095923,3.02004567 58.192398,2.57089681 58.0951224,2.11654392 C57.9848368,1.59754081 57.6307618,1.1391848 57.1233677,0.857966382 C56.1682258,0.326953945 55.0169316,0.0455353673 53.8566304,0.0455353673 C50.1555558,0.0455353673 47.3641877,2.70520113 47.3641877,6.2321405 C47.3641877,9.74046541 50.1555558,12.3861203 53.8566304,12.3861203 C55.0665702,12.3861203 56.2408822,12.1002983 57.161197,11.5794938" id="Fill-14"></path>
                            <path d="M14.2638187,4.97750602 L14.2638187,3.05481267 L15.4619493,3.05481267 C16.5886244,3.05481267 16.7403422,3.54559386 16.7403422,4.02516634 C16.7403422,4.28516829 16.7403422,4.97350291 15.2321708,4.97750602 L14.2638187,4.97750602 Z M14.2638187,9.37652274 L14.2638187,7.14699106 L15.8772719,7.14699106 C17.2211156,7.14699106 17.392849,7.73664905 17.392849,8.2518492 C17.392849,8.80808123 17.2411312,9.37652274 16.1132551,9.37652274 L14.2638187,9.37652274 Z M16.4026799,12.2169289 C18.5823729,12.2169289 20.9101809,11.208946 20.9101809,8.38034901 C20.9101809,6.96645084 19.893191,6.00210183 18.6454219,5.67044423 C19.2130628,5.48409949 20.257474,4.71089895 20.257474,3.30440653 C20.257474,1.4633766 19.2645027,0.19939487 15.7501731,0.19939487 L12.5394794,0.19939487 C11.5929442,0.19939487 10.820144,0.946375049 10.8173418,1.83686669 L10.8153403,1.85648193 L10.8153403,10.5428286 C10.8153403,11.4649448 11.5881405,12.2169289 12.5394794,12.2169289 L16.4026799,12.2169289 Z" id="Fill-16"></path>
                        </g>
                    </g>
                </g>
            </g>
        </g>
    </g>
</svg>