<svg xmlns="http://www.w3.org/2000/svg" width="289" height="40" viewBox="0 0 289 40"><style>.a{fill:#DE3E76;}</style><path d="M15 0.8C6.9 0.8 2 0.7 0.1 0.6L0 0.7v1.1l0.1 0.1c1.2 0 2 0.1 2.4 0.1 0.5 0.1 0.7 0.2 0.8 0.4 0.1 0.1 0.2 0.2 0.4 0.6 0 0.2 0.1 1.2 0.1 2.8 0 1.4 0 2.9 0 4.2v9.1c0 1 0 2.2 0 3.7 0 1.6 0 2.6-0.1 3 0 0.4-0.1 0.6-0.2 0.8 -0.2 0.1-0.5 0.2-1 0.4 -0.4 0-1.2 0.1-2.4 0.1L0 27.2v1l0.1 0.2c1.9-0.1 3.7-0.2 5.6-0.2 1.7 0 3.5 0.1 5.6 0.2l0.1-0.2V27.2l-0.1-0.1c-1.2 0-1.9-0.1-2.4-0.1 -0.5-0.1-0.7-0.2-1-0.4 -0.1-0.2-0.2-0.5-0.2-0.8 -0.1-0.4-0.1-1.4-0.1-2.9 0-1.6 0-2.9 0-3.8V2.3h6.6c0.8 0 1.6 0.1 2 0.1 0.5 0.1 0.8 0.2 1.2 0.4 0.4 0.1 0.6 0.4 0.7 0.7 0.2 0.4 0.4 0.8 0.5 1.3l0.2 1.6 0.1 0.1h0.7l0.1-0.1c0.1-2.3 0.4-4.1 0.6-5.3l-0.4-0.5C17.1 0.7 15.5 0.8 15 0.8z" class="a"/><path d="M35.1 9.6c-0.8 0-1.4 0-2 0.1 -0.6 0.1-1 0.2-1.3 0.5 -0.2 0.1-0.7 0.6-1.6 1.2 -0.7 0.7-1.6 1.4-2.4 2.2 0-1.1 0.1-2.4 0.2-4l-0.4-0.2c-1.6 0.6-3.5 1.1-5.9 1.4l-0.1 0.2v0.8l0.2 0.1c0.7 0 1.1 0 1.2 0 0.5 0 0.8 0.1 1 0.2 0.1 0 0.2 0.1 0.2 0.4 0.1 0.1 0.1 0.6 0.2 1.6 0 1 0 1.7 0 2.3v15c0 0.6 0 1.7-0.1 3.2 0 1.6 0 2.4-0.1 2.6 0 0.2-0.1 0.5-0.2 0.6 -0.1 0.1-0.2 0.1-0.5 0.2 -0.1 0-0.7 0.1-1.8 0.1l-0.1 0.2v0.8l0.1 0.1c1.6-0.1 3.1-0.1 4.4-0.1s2.8 0 4.3 0.1l0.1-0.1v-0.8l-0.1-0.2c-1.1 0-1.7-0.1-1.9-0.2 -0.2 0-0.4-0.1-0.5-0.4 -0.1-0.2-0.2-1.1-0.2-2.5 0-1.6-0.1-2.8-0.1-3.7v-3.7c1.3 0.7 2.8 1.1 4.1 1.1 0.6 0 1.2-0.1 1.7-0.2 0.6-0.1 1-0.2 1.2-0.4 0.2-0.1 0.7-0.5 1.4-1 0.5-0.4 1-0.7 1.6-1.1 1.2-0.7 1.9-1.2 2.3-1.4 0.2-0.2 0.6-0.7 1.1-1.6 0.6-0.8 1-1.8 1.3-2.8 0.2-1 0.4-1.9 0.4-2.9 0-2.4-0.6-4.2-2-5.8C39.4 10.3 37.5 9.6 35.1 9.6zM37.6 24.3c-1.1 1.6-2.6 2.3-4.7 2.3 -1.9 0-3.6-0.7-5.2-2.3v-7.5c0-0.5 0-0.8 0.1-1.1 0-0.2 0.1-0.5 0.4-1 0.2-0.4 0.6-0.8 1.1-1.2 0.6-0.5 1.2-0.8 1.9-1.1 0.6-0.4 1.3-0.5 2-0.5 1.1 0 2 0.4 3.1 1 1 0.5 1.7 1.3 2.2 2.4 0.6 1.1 0.8 2.2 0.8 3.6C39.4 21.1 38.8 22.9 37.6 24.3z" class="a"/><path d="M61.5 27.1c-0.1-0.1-0.4-0.2-0.5-0.5 -0.1-0.2-0.1-0.7-0.1-1.4v-5.8l0.1-4c0-1.8-0.6-3.2-1.8-4.3 -1.2-1.1-2.8-1.6-4.8-1.6 -1.1 0-2.2 0.2-3.1 0.6 -1.1 0.4-2.3 1.1-3.6 2v1.6c0 0.4 0 0.6 0 0.8l0.1 0.1 0.7 0.2 0.2-0.1c0.1-0.4 0.2-0.7 0.5-1.2 0.2-0.5 0.4-0.8 0.4-1 0.1-0.1 0.2-0.2 0.2-0.4 0.1 0 0.4-0.1 0.7-0.2 0.2-0.2 0.7-0.4 1.1-0.4 0.4-0.1 0.8-0.1 1.2-0.1 0.8 0 1.6 0.1 2.3 0.4 0.6 0.2 1.1 0.7 1.6 1.2 0.4 0.5 0.7 1.1 0.8 1.6 0 0.6 0.1 1.3 0.1 2.2 -3.1 0.4-5.4 0.8-6.9 1.4 -1.6 0.5-2.8 1.2-3.5 2.2 -0.8 1-1.2 2.2-1.2 3.6s0.5 2.5 1.3 3.4c1 0.8 2.2 1.2 3.7 1.2 0.8 0 1.6-0.1 2.3-0.4 0.4-0.2 1-0.7 1.8-1.4l2.5-1.9 -0.1 3.1 0.4 0.2c1.1 0 1.9-0.1 2.5-0.1 0.6 0 1.3 0.1 2.4 0.1l0.1-0.1v-0.7l-0.1-0.2C62.1 27.2 61.7 27.1 61.5 27.1zM57.6 23.4c-1.7 1.9-3.4 3-5.2 3 -1 0-1.7-0.4-2.2-0.8 -0.6-0.5-0.8-1.3-0.8-2.3 0-1.6 0.6-2.8 1.8-3.5 1.2-0.7 3.4-1.3 6.4-1.8V23.4z" class="a"/><path d="M82.6 10.2c-1.4 0-2.9-0.1-4.2-0.2l-0.1 0.2v0.7l0.1 0.2c1 0 1.6 0.1 1.8 0.2 0.2 0 0.4 0.2 0.6 0.5 0.1 0.2 0.1 1 0.2 2.3 0 1.3 0 2.4 0 3.4v0.6c-2.3 0-3.8 0-4.9 0 -1 0-2.5 0-4.9 0v-0.6c0-1.6 0-2.9 0-3.8 0-1 0.1-1.6 0.2-1.8 0.1-0.2 0.4-0.5 0.5-0.5 0.2-0.1 0.8-0.2 1.8-0.2l0.2-0.2v-0.7l-0.2-0.2c-1.2 0.1-2.6 0.2-4.1 0.2 -1.4 0-2.9-0.1-4.1-0.2L65.3 10.2v0.7l0.2 0.2c0.8 0 1.4 0.1 1.7 0.2 0.2 0 0.4 0.2 0.6 0.5 0.1 0.2 0.1 1 0.2 2.3 0 1.2 0 2.4 0 3.4v3.4c0 1.6 0 2.9 0 3.8 -0.1 1-0.1 1.6-0.2 1.8 -0.1 0.2-0.4 0.4-0.6 0.5 -0.1 0.1-0.7 0.2-1.7 0.2L65.3 27.3v0.8l0.2 0.2c1.2-0.1 2.5-0.2 4.1-0.2 1.4 0 2.8 0.1 4.1 0.2l0.2-0.2v-0.8l-0.2-0.1c-1 0-1.6-0.1-1.7-0.2 -0.2 0-0.5-0.2-0.6-0.5 -0.1-0.2-0.2-1-0.2-2.3 0-1.2 0-2.4 0-3.4v-1.6c1.7-0.1 3.2-0.1 4.9-0.1 1.8 0 3.5 0 4.9 0.1v1.6c0 1.6 0 2.9 0 3.8 -0.1 1-0.1 1.6-0.2 1.8 -0.1 0.2-0.4 0.4-0.6 0.5 -0.1 0.1-0.7 0.2-1.8 0.2l-0.1 0.1v0.8l0.1 0.2c1.3-0.1 2.6-0.2 4.2-0.2 1.4 0 2.8 0.1 4.1 0.2l0.1-0.2v-0.8l-0.1-0.1c-1 0-1.6-0.1-1.8-0.2 -0.1 0-0.4-0.2-0.5-0.5 -0.1-0.2-0.2-1-0.2-2.3v-3.4 -3.4c0-1.4 0-2.8 0-3.7 0-1 0.1-1.7 0.2-1.9 0.1-0.2 0.2-0.4 0.5-0.5 0.2-0.1 0.8-0.2 1.8-0.2l0.1-0.2v-0.7l-0.1-0.2C85.4 10.1 84 10.2 82.6 10.2z" class="a"/><path d="M105.6 27l-0.1-0.1c0-3.7 0-6.5 0-8.4 0-4.6 0-7.3 0.1-8.3l-0.2-0.2c-1.2 0.1-2.5 0.2-4 0.2 -1.6 0-3-0.1-4.3-0.2l-0.1 0.2v0.7l0.1 0.2 2.5 0.2c0.6 0 1 0.2 1 0.6 0 0.1-0.1 0.4-0.2 0.7 -0.2 0.2-1.3 1.9-3.6 5l-6.5 9c-0.6 0-1.3-0.1-2.3-0.2l-0.2 0.2c0.7 1.9 1.3 4.3 1.9 7.4h0.8c0-0.5 0-0.8 0-1.1 0-1.7 0-2.8 0-3.2 0.1-0.4 0.2-0.7 0.4-1 0.1-0.2 0.4-0.4 0.6-0.5 0.2 0 1.1-0.1 2.4-0.1 1.4-0.1 2.6-0.1 3.6-0.1l5.2 0.1h0.6c1.2 0 1.9 0 2.3 0.2 0.5 0.1 0.7 0.4 0.8 0.6 0.1 0.2 0.1 1 0.2 2.3 0 1.2 0.1 2.2 0.1 2.8h0.8c0.5-2.9 1.1-5.3 1.7-7.1l-0.2-0.4C107.8 26.8 106.6 27 105.6 27zM102.3 27H92.1c2.3-3.6 5.5-8.5 9.8-14.7h0.2c0 1.4 0.1 4 0.1 7.4V27z" class="a"/><path d="M148.5 0.7h-4.6l-7.9 0.1c-1.8 0-3.5-0.1-5-0.1h-4.1 -2.8 -1.3l-0.7-0.1h-1.2l-0.1 0.1v1.1l0.1 0.1c1.2 0 2 0.1 2.4 0.1 0.4 0.1 0.7 0.2 0.8 0.4 0.1 0.1 0.2 0.2 0.2 0.6 0.1 0.2 0.1 1.2 0.2 2.8 0 1.4 0 2.9 0 4.2v9.1c0 1 0 2.2 0 3.7 0 1.6-0.1 2.6-0.1 3 -0.1 0.4-0.1 0.6-0.4 0.8 -0.1 0.1-0.4 0.2-0.8 0.4 -0.5 0-1.2 0.1-2.4 0.1l-0.1 0.1v1l0.1 0.2c3.5-0.1 5.3-0.2 5.5-0.2 0.5 0 1.6 0.1 3.1 0.1s2.4 0.1 2.5 0.1l0.2-0.2V27.2l-0.2-0.1c-1.1 0-1.9-0.1-2.3-0.1 -0.5-0.1-0.8-0.2-1-0.4 -0.1-0.2-0.2-0.5-0.4-0.8 0-0.4 0-1.4-0.1-2.9 0-1.6 0-2.9 0-3.8V2.5l0.2-0.2h14.9l0.2 0.2v16.5c0 0.8 0 2.2-0.1 3.8 0 1.7 0 2.8-0.1 3 0 0.4-0.1 0.6-0.2 0.7 -0.1 0.1-0.4 0.2-0.8 0.2 -0.4 0.1-1.2 0.2-2.5 0.2l-0.1 0.1v1l0.1 0.2c3.5-0.1 5.4-0.2 5.6-0.2 0.5 0 1.6 0.1 3.1 0.1 1.6 0 2.4 0.1 2.5 0.1l0.1-0.2V27.2l-0.1-0.1c-1.1 0-1.9-0.1-2.4-0.1 -0.5-0.1-0.7-0.2-0.8-0.4 -0.2-0.2-0.4-0.5-0.4-0.8 0-0.5-0.1-1.4-0.1-2.9 0-1.6 0-2.9 0-3.8V9.9c0-1 0-2.3 0-4 0-1.7 0.1-2.6 0.1-2.9 0.1-0.4 0.2-0.6 0.4-0.7 0.1-0.1 0.4-0.2 0.7-0.4 0.4 0 1.2-0.1 2.5-0.1l0.1-0.1V0.7l-0.1-0.1C150.3 0.7 149.3 0.7 148.5 0.7z" class="a"/><path d="M166.9 9.6c-0.8 0-1.6 0-2 0.1 -0.6 0.1-1 0.2-1.3 0.5 -0.2 0.1-0.8 0.6-1.6 1.2 -0.8 0.7-1.6 1.4-2.4 2.2 0-1.1 0.1-2.4 0.2-4l-0.4-0.2c-1.6 0.6-3.5 1.1-5.9 1.4l-0.1 0.2v0.8l0.1 0.1c0.8 0 1.2 0 1.3 0 0.5 0 0.8 0.1 1 0.2 0.1 0 0.2 0.1 0.2 0.4 0.1 0.1 0.1 0.6 0.1 1.6 0.1 1 0.1 1.7 0.1 2.3v15c0 0.6 0 1.7-0.1 3.2 0 1.6-0.1 2.4-0.1 2.6 -0.1 0.2-0.1 0.5-0.2 0.6 -0.1 0.1-0.2 0.1-0.5 0.2 -0.2 0-0.8 0.1-1.8 0.1l-0.1 0.2v0.8l0.1 0.1c1.6-0.1 3-0.1 4.3-0.1 1.3 0 2.8 0 4.4 0.1l0.1-0.1v-0.8l-0.1-0.2c-1.1 0-1.8-0.1-1.9-0.2 -0.2 0-0.4-0.1-0.5-0.4 -0.1-0.2-0.2-1.1-0.2-2.5 -0.1-1.6-0.1-2.8-0.1-3.7v-3.7c1.3 0.7 2.6 1.1 4.1 1.1 0.6 0 1.2-0.1 1.7-0.2 0.5-0.1 1-0.2 1.1-0.4 0.2-0.1 0.7-0.5 1.6-1 0.5-0.4 1-0.7 1.4-1.1 1.3-0.7 2-1.2 2.3-1.4 0.4-0.2 0.7-0.7 1.2-1.6 0.5-0.8 1-1.8 1.2-2.8 0.4-1 0.5-1.9 0.5-2.9 0-2.4-0.7-4.2-2-5.8C171.1 10.3 169.3 9.6 166.9 9.6zM169.4 24.3c-1.1 1.6-2.6 2.3-4.7 2.3 -1.9 0-3.6-0.7-5.2-2.3v-7.5c0-0.5 0-0.8 0-1.1 0.1-0.2 0.2-0.5 0.4-1 0.2-0.4 0.7-0.8 1.2-1.2 0.6-0.5 1.2-0.8 1.8-1.1 0.7-0.4 1.4-0.5 2.2-0.5 1.1 0 2 0.4 3 1 1.1 0.5 1.8 1.3 2.3 2.4 0.5 1.1 0.7 2.2 0.7 3.6C171.1 21.1 170.6 22.9 169.4 24.3z" class="a"/><path d="M190.8 10.5c-1.2-0.7-2.5-1.1-4.1-1.1 -1.2 0-2.3 0.2-3.2 0.6 -1 0.4-1.9 1-2.8 1.6 -1 0.6-1.6 1.2-1.9 1.8 -0.4 0.5-0.7 1.3-1.1 2.4 -0.4 1.1-0.5 2.4-0.5 3.7 0 2 0.5 3.8 1.3 5.3 0.8 1.4 2 2.5 3.4 3.1 1.4 0.6 2.9 1 4.4 1 0.8 0 1.8-0.2 2.9-0.5 1.1-0.2 2.3-0.8 3.6-1.7l0.7-1.4 -0.4-0.2c-1 0.5-1.8 1-2.6 1.3 -0.8 0.2-1.8 0.4-2.6 0.4 -1.9 0-3.6-0.6-4.9-1.9 -1.3-1.2-2-3.2-2-5.9h6.2c0.6 0 1.6 0 3-0.1 1.6-0.1 2.8-0.2 3.6-0.4l0.2-0.2c0-0.4 0-0.7 0-1.2 0-1.3-0.2-2.5-0.7-3.6C192.8 12.2 191.9 11.3 190.8 10.5zM190.4 17.5c-0.4 0-1.4 0.1-3.2 0.1 -0.7 0-1.9-0.1-3.5-0.1s-2.5-0.1-2.8-0.1c0-2.2 0.5-3.8 1.3-4.9 0.8-1.1 2-1.7 3.6-1.7 1.4 0 2.5 0.5 3.4 1.4 0.8 1 1.3 2.5 1.3 4.6C190.5 16.9 190.4 17.1 190.4 17.5z" class="a"/><path d="M203 12.1c0.8-0.5 1.8-0.7 2.8-0.7 1.1 0 2.2 0.2 3.1 0.7 0.8 0.4 1.4 0.8 1.6 1.2 0 0.4 0.1 1.1 0.1 2.2l0.2 0.2h0.7l0.2-0.2c0.1-1.8 0.4-3.4 0.6-4.9 -1.3-0.7-3-1.1-5-1.1 -1 0-1.8 0.1-2.4 0.2 -0.6 0.2-1.6 0.6-2.8 1.3 -1.1 0.6-1.9 1.2-2.5 1.6 -0.5 0.4-0.8 0.8-1.3 1.4 -0.4 0.6-0.7 1.4-1 2.4 -0.4 1-0.5 2-0.5 3.2 0 2.6 0.8 4.9 2.4 6.6 1.6 1.7 3.7 2.5 6.6 2.5 2.2 0 4-0.5 5.6-1.3l0.8-1.3 -0.5-0.5c-0.8 0.4-1.6 0.7-2.3 0.8 -0.7 0.2-1.3 0.2-2 0.2 -1.2 0-2.2-0.1-3.1-0.6 -0.8-0.5-1.6-1.1-2.2-1.8 -0.6-0.8-1-1.7-1.3-2.9 -0.4-1.1-0.5-2.3-0.5-3.5 0-1.4 0.1-2.6 0.6-3.7C201.4 13.3 202.1 12.6 203 12.1z" class="a"/><path d="M222.5 10.2c-3.1 0-6 0-8.5-0.2l-0.2 0.2c0.1 2.3 0.1 3.8 0.1 4.3l0.2 0.1h0.7l0.1-0.1c0.1-1.3 0.2-2.2 0.4-2.4 0.1-0.4 0.2-0.5 0.5-0.6 0.1-0.1 0.6-0.1 1.1-0.1h4c0 1.7 0.1 3.4 0.1 5v4.4c0 1.4 0 2.8 0 3.7 0 1.1-0.1 1.7-0.2 1.9 -0.1 0.2-0.4 0.4-0.6 0.5 -0.1 0.1-0.7 0.2-1.7 0.2l-0.2 0.1v0.8l0.2 0.2c1.2-0.1 2.5-0.2 4.1-0.2 1.4 0 2.8 0.1 4.1 0.2l0.2-0.2v-0.8l-0.2-0.1c-1 0-1.6-0.1-1.8-0.2 -0.1-0.1-0.4-0.2-0.5-0.5 -0.1-0.2-0.2-1-0.2-2.3 0-1.3 0-2.4 0-3.4v-4.4 -5h4c0.6 0 1 0 1.2 0.1 0.1 0.1 0.2 0.2 0.4 0.5 0.1 0.2 0.2 1.1 0.5 2.5l0.1 0.1h0.7l0.1-0.1c0-1.2 0.1-2.6 0.1-4.3l-0.1-0.2C228.5 10.2 225.7 10.2 222.5 10.2z" class="a"/><path d="M252.2 10.2c-0.8 0-1.8-0.1-3-0.2 -1.1 1.9-2.5 4.6-4.4 7.9 -1.9 3.4-3.5 5.9-4.8 7.7h-0.2v-8.1c0-0.6 0-1.6 0-2.8 0.1-1.2 0.1-1.9 0.1-2.2 0.1-0.2 0.1-0.4 0.4-0.6 0.1-0.1 0.4-0.2 0.6-0.4 0.4-0.1 1-0.2 1.8-0.4l0.1-0.2v-0.7l-0.1-0.2c-1.9 0.1-3.4 0.2-4.6 0.2 -1.2 0-2.6-0.1-4.4-0.2l-0.2 0.2v0.7l0.2 0.2c1.4 0.1 2.3 0.5 2.5 1 0.2 0.5 0.4 2.3 0.4 5.3v3.6c0 0.6-0.1 1.4-0.1 2.5 0 1.2 0 1.9-0.1 2.2 0 0.2-0.1 0.5-0.2 0.7 -0.1 0.1-0.4 0.4-0.7 0.5 -0.4 0.1-1 0.2-1.7 0.4l-0.2 0.1v0.8l0.2 0.2c1.4-0.1 2.6-0.2 3.5-0.2 0.7 0 1.8 0.1 3 0.2 0.8-1.7 2.3-4.3 4.3-8 2-3.6 3.6-6.1 4.4-7.4l0.4 0.1v7.9c0 3-0.1 4.8-0.2 5.3 -0.2 0.5-1.1 0.8-2.6 1l-0.1 0.1v0.8l0.1 0.2c1.8-0.1 3.4-0.2 4.6-0.2 1.2 0 2.6 0.1 4.4 0.2l0.1-0.2v-0.8l-0.1-0.1c-1.4-0.1-2.4-0.5-2.5-1 -0.2-0.5-0.4-2.3-0.4-5.3v-3.6c0-3 0.1-4.8 0.4-5.3 0.1-0.5 1-0.8 2.5-1l0.1-0.2v-0.7l-0.1-0.2C254.1 10.1 253.1 10.2 252.2 10.2z" class="a"/><path d="M288.9 27.2c-0.6 0-1.1-0.1-1.4-0.4 -0.4-0.1-0.7-0.4-1.2-0.8 -0.5-0.4-1.6-1.6-3.6-3.5 -1.9-1.9-3.5-3.5-4.6-4.8 1.4-1.3 3-2.6 4.4-3.7 1.4-1.2 2.4-1.9 3.1-2.2 0.6-0.4 1.3-0.6 2.2-0.7l0.1-0.2v-0.7l-0.1-0.2c-1 0.1-1.8 0.2-2.6 0.2 -0.4 0-1.3-0.1-2.6-0.2l-0.1 0.2v0.7c0.2 0.1 0.4 0.2 0.4 0.4 0 0 0 0.1-0.1 0.2 0 0.1-0.5 0.7-1.4 1.7 -0.8 1-1.8 1.8-2.6 2.8 -1 1-1.9 1.9-3.1 2.9h-0.5v-1.4c0-0.7 0-1.7 0.1-2.8 0-1.2 0-1.9 0.1-2.2 0-0.2 0.1-0.4 0.2-0.6 0.1-0.1 0.4-0.2 0.7-0.4 0.2-0.1 0.8-0.2 1.7-0.4l0.1-0.2v-0.7l-0.1-0.2c-1.8 0.1-3.2 0.2-4.4 0.2 -1.1 0-2.5-0.1-4.4-0.2l-0.1 0.2v0.7l0.1 0.2c0.8 0.1 1.4 0.2 1.8 0.4 0.4 0.1 0.6 0.4 0.7 0.5 0.2 0.2 0.2 0.5 0.2 0.8 0.1 0.4 0.1 1.1 0.1 2.3 0 1.1 0 1.9 0 2.3v1.4h-0.5c-1.1-1.1-2.2-2-3-2.9 -1-1-1.9-1.9-2.8-2.9 -0.8-0.8-1.3-1.4-1.4-1.6 0-0.1 0-0.2 0-0.2 0-0.1 0.1-0.2 0.4-0.4v-0.7l-0.1-0.2c-1.4 0.1-2.3 0.2-2.8 0.2 -0.7 0-1.6-0.1-2.6-0.2l-0.1 0.2v0.7l0.1 0.2c0.8 0.1 1.6 0.4 2.3 0.6 0.6 0.4 1.7 1.1 3.1 2.3 1.4 1.1 2.9 2.4 4.4 3.8l-4.7 4.7c-1.8 1.8-3 3-3.5 3.5 -0.5 0.4-1 0.7-1.3 0.8 -0.4 0.2-0.8 0.4-1.3 0.4l-0.1 0.1v0.8l0.1 0.2c2.2-0.1 3.5-0.2 4.2-0.4 0.6-0.2 1.2-0.5 1.8-1 0.5-0.5 1.6-1.6 3.1-3.2 1.4-1.7 2.9-3.1 4.2-4.4h0.5v1.6c0 0.6 0 1.4 0 2.6 0 1.1-0.1 1.8-0.1 2 0 0.2-0.1 0.5-0.2 0.7 -0.1 0.1-0.4 0.4-0.7 0.5 -0.4 0.1-1 0.2-1.8 0.4l-0.1 0.1v0.8l0.1 0.2c1.8-0.1 3.4-0.2 4.4-0.2 1.2 0 2.6 0.1 4.4 0.2l0.1-0.2v-0.8l-0.1-0.1c-0.7-0.1-1.3-0.2-1.8-0.4 -0.4-0.1-0.6-0.4-0.7-0.5 -0.1-0.2-0.1-0.5-0.2-0.8 0-0.4 0-1.1 0-2.2 -0.1-1.2-0.1-2-0.1-2.4v-1.6h0.6c1.3 1.3 2.8 2.8 4.2 4.4 1.6 1.7 2.5 2.8 3.1 3.2 0.5 0.4 1.1 0.7 1.7 1 0.7 0.1 2 0.2 4.3 0.4l0.1-0.2v-0.8L288.9 27.2z" class="a"/></svg>