<?xml version="1.0" encoding="UTF-8"?>
<svg width="50px" height="35px" viewBox="0 0 50 35" version="1.1" xmlns="http://www.w3.org/2000/svg" xmlns:xlink="http://www.w3.org/1999/xlink">
    <!-- Generator: Sketch 40.2 (33826) - http://www.bohemiancoding.com/sketch -->
    <title>maestro</title>
    <desc>Created with Sketch.</desc>
    <defs></defs>
    <g id="Page-1" stroke="none" stroke-width="1" fill="none" fill-rule="evenodd">
        <g id="01_Sposobi_Desktop" transform="translate(-505.000000, -306.000000)">
            <g id="про-меню" transform="translate(328.000000, 61.000000)">
                <g id="1" transform="translate(0.000000, 245.000000)">
                    <g id="ms_vrt_pos" transform="translate(182.000000, 2.000000)">
                        <path d="M12.0991453,30.8512821 L12.0991453,28.8 C12.1233373,28.4519133 11.9965451,28.1102532 11.7511293,27.8622196 C11.5057134,27.614186 11.1654178,27.483776 10.817094,27.5042735 C10.3568664,27.4741018 9.91669385,27.6968082 9.66837607,28.0854701 C9.44198151,27.7083964 9.02744558,27.4853865 8.58803419,27.5042735 C8.20544184,27.4849323 7.84121763,27.669646 7.63076923,27.9897436 L7.63076923,27.5863248 L6.91965812,27.5863248 L6.91965812,30.8512821 L7.63760684,30.8512821 L7.63760684,29.042735 C7.60539384,28.8161833 7.6766455,28.5871431 7.83169142,28.4188454 C7.98673735,28.2505477 8.20917892,28.1607927 8.43760684,28.174359 C8.90940171,28.174359 9.14871795,28.4820513 9.14871795,29.0358974 L9.14871795,30.8512821 L9.86666667,30.8512821 L9.86666667,29.042735 C9.83701524,28.8166984 9.90915255,28.5891533 10.0636176,28.4214861 C10.2180827,28.2538189 10.4389617,28.1633035 10.6666667,28.174359 C11.1521368,28.174359 11.3846154,28.4820513 11.3846154,29.0358974 L11.3846154,30.8512821 L12.0991453,30.8512821 Z M16.0991453,29.2205128 L16.0991453,27.5897436 L15.3811966,27.5897436 L15.3811966,27.9863248 C15.1365692,27.6706395 14.7546371,27.4924045 14.3555556,27.5076923 C13.4114791,27.5076923 12.6461538,28.2730175 12.6461538,29.217094 C12.6461538,30.1611705 13.4114791,30.9264957 14.3555556,30.9264957 C14.7546371,30.9417835 15.1365692,30.7635486 15.3811966,30.4478632 L15.3811966,30.8444444 L16.0923077,30.8444444 L16.0991453,29.2205128 Z M13.4564103,29.2205128 C13.4880325,28.6839893 13.9427152,28.2711482 14.4797916,28.2913069 C15.0168681,28.3114655 15.4393238,28.7572292 15.4306379,29.2946136 C15.421952,29.8319981 14.9853106,30.2638759 14.4478632,30.2666667 C14.1727026,30.27312 13.907565,30.1633028 13.7175519,29.9641796 C13.5275389,29.7650563 13.4302497,29.49507 13.4495726,29.2205128 L13.4564103,29.2205128 Z M31.2923077,27.5111111 C31.5264188,27.5105061 31.7584931,27.5546002 31.9760684,27.6410256 C32.1837474,27.7241943 32.3730816,27.8473196 32.5333333,28.0034188 C32.6915137,28.1581087 32.817066,28.3429496 32.9025641,28.5470085 C33.0811822,28.9853514 33.0811822,29.476187 32.9025641,29.9145299 C32.817148,30.1186333 32.6915852,30.3034896 32.5333333,30.4581197 C32.3730816,30.6142188 32.1837474,30.7373441 31.9760684,30.8205128 C31.5252511,30.9956884 31.0251763,30.9956884 30.574359,30.8205128 C30.3676487,30.7374267 30.1794194,30.6142643 30.0205128,30.4581197 C29.863844,30.3028837 29.7395094,30.1181247 29.6547009,29.9145299 C29.4764459,29.476116 29.4764459,28.9854225 29.6547009,28.5470085 C29.7395094,28.3434137 29.863844,28.1586548 30.0205128,28.0034188 C30.1794194,27.8472742 30.3676487,27.7241118 30.574359,27.6410256 C30.7997528,27.5475992 31.0414823,27.4999506 31.2854701,27.5008547 L31.2923077,27.5111111 Z M31.2923077,28.1948718 C31.1530709,28.1929726 31.0148246,28.2185307 30.8854701,28.2700855 C30.7636298,28.3189368 30.6530937,28.3922397 30.5606838,28.4854701 C30.466411,28.5836164 30.3931254,28.6999428 30.3452991,28.8273504 C30.2408568,29.1003224 30.2408568,29.4022417 30.3452991,29.6752137 C30.3930389,29.8026642 30.466335,29.9190072 30.5606838,30.017094 C30.6530317,30.1103999 30.7635844,30.1837138 30.8854701,30.2324786 C31.1459276,30.3344665 31.435269,30.3344665 31.6957265,30.2324786 C31.8234401,30.1852709 31.9398863,30.1119098 32.0376068,30.017094 C32.1321091,29.9191274 32.2054264,29.8027508 32.2529915,29.6752137 C32.3574338,29.4022417 32.3574338,29.1003224 32.2529915,28.8273504 C32.2054264,28.6998133 32.1321091,28.5834367 32.0376068,28.4854701 C31.9398863,28.3906543 31.8234401,28.3172932 31.6957265,28.2700855 C31.5667578,28.2110452 31.4272501,28.1784934 31.2854701,28.174359 L31.2923077,28.1948718 Z M19.9623932,29.2205128 C19.9623932,28.1948718 19.3264957,27.5111111 18.4136752,27.5111111 C17.4695988,27.5243282 16.7149882,28.300368 16.7282052,29.2444444 C16.7414223,30.1885209 17.517462,30.9431315 18.4615385,30.9299145 C18.9482614,30.9465443 19.4240831,30.783475 19.7982906,30.4717949 L19.4564103,29.9452991 C19.1864485,30.1618047 18.8520006,30.2821097 18.5059829,30.2871795 C18.0172193,30.3292137 17.5837881,29.9745882 17.5282051,29.4871795 L19.9521368,29.4871795 C19.9623932,29.4017094 19.9623932,29.3162393 19.9623932,29.2205128 L19.9623932,29.2205128 Z M17.5316239,28.9333333 C17.5590653,28.4823076 17.9379949,28.1335716 18.3897436,28.1435897 C18.6046506,28.139008 18.8125709,28.2200102 18.9677398,28.3687671 C19.1229087,28.5175241 19.2126079,28.7218431 19.217094,28.9367521 L17.5316239,28.9333333 Z M22.9538462,28.4205128 C22.6416305,28.2407369 22.2884575,28.144203 21.9282051,28.1401709 C21.5384615,28.1401709 21.3059829,28.2837607 21.3059829,28.5230769 C21.3059829,28.7623932 21.5521368,28.8034188 21.8598291,28.8444444 L22.2017094,28.8923077 C22.9128205,28.9948718 23.3435897,29.2957265 23.3435897,29.8700855 C23.3435897,30.4444444 22.7965812,30.9367521 21.8564103,30.9367521 C21.3525193,30.9501559 20.8576176,30.8015656 20.4444444,30.5128205 L20.7863248,29.9589744 C21.1000695,30.1917366 21.4830094,30.312158 21.8735043,30.3008547 C22.3589744,30.3008547 22.6188034,30.157265 22.6188034,29.9042735 C22.6188034,29.7196581 22.434188,29.617094 22.0444444,29.5623932 L21.7025641,29.5145299 C20.9709402,29.4119658 20.574359,29.0837607 20.574359,28.5504274 C20.574359,27.9008547 21.1076923,27.5042735 21.9418803,27.5042735 C22.4087661,27.4886307 22.8703359,27.6072862 23.2717949,27.8461538 L22.9538462,28.4205128 Z M26.3726496,28.2358974 L25.2136752,28.2358974 L25.2136752,29.7094017 C25.2136752,30.0512821 25.3299145,30.2564103 25.6854701,30.2564103 C25.9073952,30.2490607 26.1238302,30.1855418 26.3145299,30.0717949 L26.5196581,30.6803419 C26.2530966,30.8466933 25.9449773,30.9343888 25.6307692,30.9333333 C24.7897436,30.9333333 24.4957265,30.4820513 24.4957265,29.7230769 L24.4957265,28.2358974 L23.8324786,28.2358974 L23.8324786,27.5863248 L24.4957265,27.5863248 L24.4957265,26.5948718 L25.2136752,26.5948718 L25.2136752,27.5863248 L26.3726496,27.5863248 L26.3726496,28.2358974 Z M28.8307692,27.5042735 C29.0032555,27.50494 29.1743665,27.535 29.3367521,27.5931624 L29.1179487,28.2769231 C28.9766454,28.2205854 28.825609,28.1927017 28.6735043,28.1948718 C28.208547,28.1948718 27.9897436,28.4957265 27.9897436,29.0358974 L27.9897436,30.8649573 L27.2786325,30.8649573 L27.2786325,27.6 L27.982906,27.6 L27.982906,27.9965812 C28.1606779,27.6912148 28.4912538,27.5075615 28.8444444,27.5179487 L28.8307692,27.5042735 Z" id="Shape" fill="#000000"></path>
                        <g id="_Group_">
                            <rect id="Rectangle-path" fill="#7673C0" x="14.5777778" y="2.67692308" width="10.7692308" height="19.3538462"></rect>
                            <path d="M15.2615385,12.3555556 C15.257512,8.57828795 16.9910577,5.00907496 19.9623932,2.67692308 C14.9161676,-1.28887119 7.6695854,-0.711218957 3.31534971,4.0039213 C-1.03888599,8.71906156 -1.03888599,15.9886307 3.31534971,20.703771 C7.6695854,25.4189113 14.9161676,25.9965635 19.9623932,22.0307692 C16.992003,19.6993577 15.2585632,16.1316234 15.2615385,12.3555556 L15.2615385,12.3555556 Z" id="_Path_" fill="#EB001B"></path>
                            <path d="M39.8735043,12.3555556 C39.8723661,17.0665532 37.182175,21.3635952 32.9449373,23.4225552 C28.7076996,25.4815151 23.666899,24.9411191 19.9623932,22.0307692 C22.9314873,19.6973784 24.6650575,16.1301185 24.6650575,12.3538462 C24.6650575,8.57757384 22.9314873,5.01031391 19.9623932,2.67692308 C23.6668683,-0.235519598 28.7090905,-0.777140999 32.9476087,1.28208756 C37.1861268,3.34131612 39.8768132,7.63986996 39.8769231,12.3521368 L39.8735043,12.3555556 Z" id="Shape" fill="#00A1DF"></path>
                        </g>
                    </g>
                </g>
            </g>
        </g>
    </g>
</svg>