<?xml version="1.0" encoding="UTF-8"?>
<svg width="50px" height="35px" viewBox="0 0 50 35" version="1.1" xmlns="http://www.w3.org/2000/svg" xmlns:xlink="http://www.w3.org/1999/xlink">
    <!-- Generator: Sketch 40.2 (33826) - http://www.bohemiancoding.com/sketch -->
    <title>mastercard</title>
    <desc>Created with Sketch.</desc>
    <defs></defs>
    <g id="Page-1" stroke="none" stroke-width="1" fill="none" fill-rule="evenodd">
        <g id="01_Sposobi_Desktop" transform="translate(-445.000000, -306.000000)">
            <g id="про-меню" transform="translate(328.000000, 61.000000)">
                <g id="1" transform="translate(0.000000, 245.000000)">
                    <g id="Group" transform="translate(122.000000, 2.000000)">
                        <path d="M7.42372881,30.8813559 L7.42372881,28.8474576 C7.42372881,28.0677966 6.94915254,27.559322 6.13559322,27.559322 C5.72881356,27.559322 5.28813559,27.6949153 4.98305085,28.1355932 C4.74576271,27.7627119 4.40677966,27.559322 3.89830508,27.559322 C3.55932203,27.559322 3.22033898,27.6610169 2.94915254,28.0338983 L2.94915254,27.6271186 L2.23728814,27.6271186 L2.23728814,30.8813559 L2.94915254,30.8813559 L2.94915254,29.0847458 C2.94915254,28.5084746 3.25423729,28.2372881 3.72881356,28.2372881 C4.20338983,28.2372881 4.44067797,28.5423729 4.44067797,29.0847458 L4.44067797,30.8813559 L5.15254237,30.8813559 L5.15254237,29.0847458 C5.15254237,28.5084746 5.49152542,28.2372881 5.93220339,28.2372881 C6.40677966,28.2372881 6.6440678,28.5423729 6.6440678,29.0847458 L6.6440678,30.8813559 L7.42372881,30.8813559 L7.42372881,30.8813559 Z M17.9661017,27.6271186 L16.8135593,27.6271186 L16.8135593,26.6440678 L16.1016949,26.6440678 L16.1016949,27.6271186 L15.4576271,27.6271186 L15.4576271,28.2711864 L16.1016949,28.2711864 L16.1016949,29.7627119 C16.1016949,30.5084746 16.4067797,30.9491525 17.220339,30.9491525 C17.5254237,30.9491525 17.8644068,30.8474576 18.1016949,30.7118644 L17.8983051,30.1016949 C17.6949153,30.2372881 17.4576271,30.2711864 17.2881356,30.2711864 C16.9491525,30.2711864 16.8135593,30.0677966 16.8135593,29.7288136 L16.8135593,28.2711864 L17.9661017,28.2711864 L17.9661017,27.6271186 L17.9661017,27.6271186 Z M24,27.559322 C23.5932203,27.559322 23.3220339,27.7627119 23.1525424,28.0338983 L23.1525424,27.6271186 L22.440678,27.6271186 L22.440678,30.8813559 L23.1525424,30.8813559 L23.1525424,29.0508475 C23.1525424,28.5084746 23.3898305,28.2033898 23.8305085,28.2033898 C23.9661017,28.2033898 24.1355932,28.2372881 24.2711864,28.2711864 L24.4745763,27.5932203 C24.3389831,27.559322 24.1355932,27.559322 24,27.559322 L24,27.559322 L24,27.559322 Z M14.8813559,27.8983051 C14.5423729,27.6610169 14.0677966,27.559322 13.559322,27.559322 C12.7457627,27.559322 12.2033898,27.9661017 12.2033898,28.6101695 C12.2033898,29.1525424 12.6101695,29.4576271 13.3220339,29.559322 L13.6610169,29.5932203 C14.0338983,29.6610169 14.2372881,29.7627119 14.2372881,29.9322034 C14.2372881,30.1694915 13.9661017,30.3389831 13.4915254,30.3389831 C13.0169492,30.3389831 12.6440678,30.1694915 12.4067797,30 L12.0677966,30.5423729 C12.440678,30.8135593 12.9491525,30.9491525 13.4576271,30.9491525 C14.4067797,30.9491525 14.9491525,30.5084746 14.9491525,29.8983051 C14.9491525,29.3220339 14.5084746,29.0169492 13.8305085,28.9152542 L13.4915254,28.8813559 C13.1864407,28.8474576 12.9491525,28.779661 12.9491525,28.5762712 C12.9491525,28.3389831 13.1864407,28.2033898 13.559322,28.2033898 C13.9661017,28.2033898 14.3728814,28.3728814 14.5762712,28.4745763 L14.8813559,27.8983051 L14.8813559,27.8983051 Z M33.7966102,27.559322 C33.3898305,27.559322 33.1186441,27.7627119 32.9491525,28.0338983 L32.9491525,27.6271186 L32.2372881,27.6271186 L32.2372881,30.8813559 L32.9491525,30.8813559 L32.9491525,29.0508475 C32.9491525,28.5084746 33.1864407,28.2033898 33.6271186,28.2033898 C33.7627119,28.2033898 33.9322034,28.2372881 34.0677966,28.2711864 L34.2711864,27.5932203 C34.1355932,27.559322 33.9322034,27.559322 33.7966102,27.559322 L33.7966102,27.559322 L33.7966102,27.559322 Z M24.7118644,29.2542373 C24.7118644,30.2372881 25.3898305,30.9491525 26.440678,30.9491525 C26.9152542,30.9491525 27.2542373,30.8474576 27.5932203,30.5762712 L27.2542373,30 C26.9830508,30.2033898 26.7118644,30.3050847 26.4067797,30.3050847 C25.8305085,30.3050847 25.4237288,29.8983051 25.4237288,29.2542373 C25.4237288,28.6440678 25.8305085,28.2372881 26.4067797,28.2033898 C26.7118644,28.2033898 26.9830508,28.3050847 27.2542373,28.5084746 L27.5932203,27.9322034 C27.2542373,27.6610169 26.9152542,27.559322 26.440678,27.559322 C25.3898305,27.559322 24.7118644,28.2711864 24.7118644,29.2542373 L24.7118644,29.2542373 L24.7118644,29.2542373 Z M31.2881356,29.2542373 L31.2881356,27.6271186 L30.5762712,27.6271186 L30.5762712,28.0338983 C30.3389831,27.7288136 30,27.559322 29.559322,27.559322 C28.6440678,27.559322 27.9322034,28.2711864 27.9322034,29.2542373 C27.9322034,30.2372881 28.6440678,30.9491525 29.559322,30.9491525 C30.0338983,30.9491525 30.3728814,30.779661 30.5762712,30.4745763 L30.5762712,30.8813559 L31.2881356,30.8813559 L31.2881356,29.2542373 L31.2881356,29.2542373 Z M28.6779661,29.2542373 C28.6779661,28.6779661 29.0508475,28.2033898 29.6610169,28.2033898 C30.2372881,28.2033898 30.6440678,28.6440678 30.6440678,29.2542373 C30.6440678,29.8305085 30.2372881,30.3050847 29.6610169,30.3050847 C29.0508475,30.2711864 28.6779661,29.8305085 28.6779661,29.2542373 L28.6779661,29.2542373 L28.6779661,29.2542373 Z M20.1694915,27.559322 C19.220339,27.559322 18.5423729,28.2372881 18.5423729,29.2542373 C18.5423729,30.2711864 19.220339,30.9491525 20.2033898,30.9491525 C20.6779661,30.9491525 21.1525424,30.8135593 21.5254237,30.5084746 L21.1864407,30 C20.9152542,30.2033898 20.5762712,30.3389831 20.2372881,30.3389831 C19.7966102,30.3389831 19.3559322,30.1355932 19.2542373,29.559322 L21.6610169,29.559322 L21.6610169,29.2881356 C21.6949153,28.2372881 21.0847458,27.559322 20.1694915,27.559322 L20.1694915,27.559322 L20.1694915,27.559322 Z M20.1694915,28.1694915 C20.6101695,28.1694915 20.9152542,28.440678 20.9830508,28.9491525 L19.2881356,28.9491525 C19.3559322,28.5084746 19.6610169,28.1694915 20.1694915,28.1694915 L20.1694915,28.1694915 L20.1694915,28.1694915 Z M37.8305085,29.2542373 L37.8305085,26.3389831 L37.1186441,26.3389831 L37.1186441,28.0338983 C36.8813559,27.7288136 36.5423729,27.559322 36.1016949,27.559322 C35.1864407,27.559322 34.4745763,28.2711864 34.4745763,29.2542373 C34.4745763,30.2372881 35.1864407,30.9491525 36.1016949,30.9491525 C36.5762712,30.9491525 36.9152542,30.779661 37.1186441,30.4745763 L37.1186441,30.8813559 L37.8305085,30.8813559 L37.8305085,29.2542373 L37.8305085,29.2542373 Z M35.220339,29.2542373 C35.220339,28.6779661 35.5932203,28.2033898 36.2033898,28.2033898 C36.779661,28.2033898 37.1864407,28.6440678 37.1864407,29.2542373 C37.1864407,29.8305085 36.779661,30.3050847 36.2033898,30.3050847 C35.5932203,30.2711864 35.220339,29.8305085 35.220339,29.2542373 L35.220339,29.2542373 L35.220339,29.2542373 Z M11.4237288,29.2542373 L11.4237288,27.6271186 L10.7118644,27.6271186 L10.7118644,28.0338983 C10.4745763,27.7288136 10.1355932,27.559322 9.69491525,27.559322 C8.77966102,27.559322 8.06779661,28.2711864 8.06779661,29.2542373 C8.06779661,30.2372881 8.77966102,30.9491525 9.69491525,30.9491525 C10.1694915,30.9491525 10.5084746,30.779661 10.7118644,30.4745763 L10.7118644,30.8813559 L11.4237288,30.8813559 L11.4237288,29.2542373 L11.4237288,29.2542373 Z M8.77966102,29.2542373 C8.77966102,28.6779661 9.15254237,28.2033898 9.76271186,28.2033898 C10.3389831,28.2033898 10.7457627,28.6440678 10.7457627,29.2542373 C10.7457627,29.8305085 10.3389831,30.3050847 9.76271186,30.3050847 C9.15254237,30.2711864 8.77966102,29.8305085 8.77966102,29.2542373 L8.77966102,29.2542373 Z" id="XMLID_1775_" fill="#000000"></path>
                        <g id="XMLID_328_">
                            <rect id="Rectangle-path" fill="#FF5F00" x="14.6440678" y="2.91525424" width="10.6779661" height="19.1864407"></rect>
                            <path d="M15.3220339,12.5084746 C15.3220339,8.61016949 17.1525424,5.15254237 19.9661017,2.91525424 C17.8983051,1.28813559 15.2881356,0.305084746 12.440678,0.305084746 C5.69491525,0.305084746 0.237288136,5.76271186 0.237288136,12.5084746 C0.237288136,19.2542373 5.69491525,24.7118644 12.440678,24.7118644 C15.2881356,24.7118644 17.8983051,23.7288136 19.9661017,22.1016949 C17.1525424,19.8983051 15.3220339,16.4067797 15.3220339,12.5084746 L15.3220339,12.5084746 Z" id="XMLID_330_" fill="#EB001B"></path>
                            <path d="M39.7288136,12.5084746 C39.7288136,19.2542373 34.2711864,24.7118644 27.5254237,24.7118644 C24.6779661,24.7118644 22.0677966,23.7288136 20,22.1016949 C22.8474576,19.8644068 24.6440678,16.4067797 24.6440678,12.5084746 C24.6440678,8.61016949 22.8135593,5.15254237 20,2.91525424 C22.0677966,1.28813559 24.6779661,0.305084746 27.5254237,0.305084746 C34.2711864,0.305084746 39.7288136,5.79661017 39.7288136,12.5084746 L39.7288136,12.5084746 Z" id="Shape" fill="#F79E1B"></path>
                        </g>
                    </g>
                </g>
            </g>
        </g>
    </g>
</svg>