<?xml version="1.0" encoding="UTF-8" standalone="no"?>
<svg width="50px" height="30px" viewBox="0 0 50 30" version="1.1" xmlns="http://www.w3.org/2000/svg" xmlns:xlink="http://www.w3.org/1999/xlink">
    <!-- Generator: Sketch 39.1 (31720) - http://www.bohemiancoding.com/sketch -->
    <title>mir</title>
    <desc>Created with Sketch.</desc>
    <defs>
        <linearGradient x1="-0.0503209243%" y1="49.877377%" x2="99.995122%" y2="49.877377%" id="linearGradient-1">
            <stop stop-color="#00A3E1" offset="0%"></stop>
            <stop stop-color="#009ADD" offset="30.42%"></stop>
            <stop stop-color="#0082D4" offset="79.87%"></stop>
            <stop stop-color="#0076CF" offset="100%"></stop>
        </linearGradient>
    </defs>
    <g id="Page-1" stroke="none" stroke-width="1" fill="none" fill-rule="evenodd">
        <g id="01_Sposobi_Desktop" transform="translate(-328.000000, -311.000000)">
            <g id="про-меню" transform="translate(328.000000, 61.000000)">
                <g id="1" transform="translate(0.000000, 245.000000)">
                    <g id="mir" transform="translate(2.000000, 14.000000)">
                        <path d="M26.089434,1.40113208 L23.1275472,7.82150943 L22.8260377,7.82150943 L22.8260377,0 L18.6226415,0 L18.6226415,13.2132075 L22.205283,13.2132075 C23.145283,13.2132075 23.9966038,12.6633962 24.3867925,11.8120755 L27.3486792,5.39169811 L27.6501887,5.39169811 L27.6501887,13.2132075 L31.8535849,13.2132075 L31.8535849,1.0081663e-14 L28.2886792,1.0081663e-14 C27.3486792,0.0177358491 26.4973585,0.549811321 26.089434,1.40113208 L26.089434,1.40113208 Z" id="Shape" fill="#319B42"></path>
                        <path d="M10.3222642,1.75584906 L8.56641509,7.83924528 L8.26490566,7.83924528 L6.5090566,1.75584906 C6.20754717,0.727169811 5.26754717,0.0177358491 4.20339623,0.0177358491 L0,0.0177358491 L0,13.2309434 L4.20339623,13.2309434 L4.20339623,5.40943396 L4.50490566,5.40943396 L6.91698113,13.2309434 L9.91433962,13.2309434 L12.3264151,5.40943396 L12.6279245,5.40943396 L12.6279245,13.2309434 L16.8313208,13.2309434 L16.8313208,0.0177358491 L12.6279245,0.0177358491 C11.5460377,0.0177358491 10.6060377,0.727169811 10.3222642,1.75584906 L10.3222642,1.75584906 Z" id="Shape" fill="#319B42"></path>
                        <path d="M33.6449057,6.01245283 L33.6449057,13.2309434 L37.8483019,13.2309434 L37.8483019,9.02754717 L42.3709434,9.02754717 C44.3396226,9.02754717 45.9890566,7.76830189 46.6098113,6.03018868 L33.6449057,6.03018868 L33.6449057,6.01245283 Z" id="Shape" fill="#319B42"></path>
                        <path d="M42.3709434,0.0177358491 L33.0596226,0.0177358491 C33.6271698,3.08603774 36.3230189,5.42716981 39.5509434,5.42716981 L46.7871698,5.42716981 C46.8403774,5.14339623 46.8758491,4.84188679 46.8758491,4.52264151 C46.8758491,2.02188679 44.8539623,0.0177358491 42.3709434,0.0177358491 L42.3709434,0.0177358491 Z" id="Shape" fill="url(#linearGradient-1)"></path>
                    </g>
                </g>
            </g>
        </g>
    </g>
</svg>