<?xml version="1.0" encoding="UTF-8" standalone="no"?>
<svg width="40px" height="40px" viewBox="0 0 40 40" version="1.1" xmlns="http://www.w3.org/2000/svg" xmlns:xlink="http://www.w3.org/1999/xlink" xmlns:sketch="http://www.bohemiancoding.com/sketch/ns">
    <!-- Generator: Sketch 3.5.2 (25235) - http://www.bohemiancoding.com/sketch -->
    <title>qiwi</title>
    <desc>Created with Sketch.</desc>
    <defs></defs>
    <g id="Page-1" stroke="none" stroke-width="1" fill="none" fill-rule="evenodd" sketch:type="MSPage">
        <g id="Desktop_v1" sketch:type="MSArtboardGroup" transform="translate(-329.000000, -1517.000000)">
            <g id="hr" sketch:type="MSLayerGroup" transform="translate(324.000000, 1029.000000)"></g>
            <g id="Электронные-деньги" sketch:type="MSLayerGroup" transform="translate(328.000000, 1100.000000)" fill="#FF9900">
                <g id="qiwi" transform="translate(1.000000, 417.000000)" sketch:type="MSShapeGroup">
                    <path d="M37.6677244,37.5934561 C36.6429402,35.5082058 34.8254469,33.9778804 32.8560914,32.8043741 C32.1732825,32.3973149 31.402268,32.110147 30.7303064,31.890061 C29.1848519,31.389658 27.6890666,31.2737632 25.9449353,30.9754625 C24.5279356,30.7331111 23.4083803,30.150497 22.2068993,29.3349514 C21.5811815,28.9070541 21.0693603,28.3204436 20.6417484,27.6987222 C20.5621064,27.5734073 20.1624691,27.0867062 20.2024328,26.9194294 C20.2024328,26.9194294 19.9238285,28.034703 20.4756135,29.5998539 C15.4036453,29.3726315 10.9573949,26.5600413 8.92095744,23.1505643 C5.17150324,16.8768297 6.49287541,9.27344468 11.4911962,5.91563504 C16.4880896,2.55668357 24.108031,4.92624728 28.1869005,10.989316 C30.7471483,14.7944339 31.402268,19.2212733 30.3055491,22.8217199 C30.2972709,22.8496945 30.2869945,22.8759564 30.2787163,22.903931 C28.1115403,21.3276473 26.1319085,22.1317747 26.1319085,22.1317747 C28.3039372,21.9074069 30.0212357,23.6358382 30.0212357,23.6358382 C30.2732927,23.860206 30.5156441,24.1082665 30.7360156,24.3843017 C30.7848284,24.4510982 30.8362103,24.519322 30.8853086,24.5918277 C31.4539354,25.363984 31.8090417,26.2226333 31.959762,27.0938426 C36.2721339,21.6230935 36.9846301,14.0459704 33.1683794,8.16131118 C28.3079335,0.66097552 17.9433403,-1.25414349 10.02624,3.87805575 C2.10514337,9.01425135 -0.37317877,19.251817 4.4898362,26.7510109 C8.48449642,32.9214107 17.8554201,34.8031315 23.2271162,33.1026748 C25.2581301,32.4641115 32.2121044,31.8563773 37.0528539,37.5740452 C37.0528539,37.5740452 37.4707603,38.0521827 37.6982681,38.5971167 C37.6982681,38.5971167 37.7653501,38.7880862 37.9449014,38.6958842 C37.992287,38.6707641 38.12588,38.5160474 37.6677244,37.5934561 L37.6677244,37.5934561 Z M27.7001994,27.467218 C27.6944903,27.4632216 27.6907794,27.4632216 27.6850703,27.4589398 C27.6739375,27.4589398 27.6656593,27.454658 27.6582375,27.4520889 C27.6459629,27.447807 27.635972,27.4423834 27.6248392,27.4395288 C27.6182737,27.4395288 27.6082828,27.4395288 27.6054283,27.4366743 C27.5874446,27.4309652 27.5708882,27.4269688 27.5511918,27.4198324 C27.3265385,27.3810105 27.103598,27.4144088 26.918623,27.5343 C26.4987184,27.8200406 26.434491,28.4654549 26.7784645,28.9795597 C26.9391758,29.2124912 27.1538381,29.3740588 27.3850568,29.4634063 C27.3896241,29.4634063 27.3936205,29.4634063 27.4036114,29.4688299 C27.4101769,29.4702572 27.4201678,29.4759663 27.4270187,29.4759663 C27.4381515,29.48139 27.4492843,29.48139 27.4592752,29.4842445 C27.4686952,29.4842445 27.4732625,29.4885263 27.479828,29.4910954 C27.4983826,29.4953773 27.5135117,29.5022282 27.5317808,29.5036555 C27.7547213,29.5481865 27.9788037,29.5162155 28.1657768,29.3909007 C28.5882505,29.10516 28.652478,28.4626003 28.3079335,27.9496373 C28.148935,27.7141368 27.9331308,27.5497146 27.7001994,27.467218 L27.7001994,27.467218 Z M30.5090787,26.2825789 C30.1534015,26.1501277 30.1214305,26.5697468 30.210778,26.8429274 C30.4085984,27.4826326 30.6774972,27.9719028 30.8741759,28.0695285 C31.0620054,28.1837106 31.2849459,27.9202354 31.1427892,27.2805303 C31.0817018,27.0030678 30.8713213,26.4233083 30.5090787,26.2825789 L30.5090787,26.2825789 Z"></path>
                </g>
            </g>
        </g>
    </g>
</svg>