<?xml version="1.0" encoding="UTF-8" standalone="no"?>
<svg width="41px" height="40px" viewBox="0 0 41 40" version="1.1" xmlns="http://www.w3.org/2000/svg" xmlns:xlink="http://www.w3.org/1999/xlink" xmlns:sketch="http://www.bohemiancoding.com/sketch/ns">
    <!-- Generator: Sketch 3.5.2 (25235) - http://www.bohemiancoding.com/sketch -->
    <title>sber_big</title>
    <desc>Created with Sketch.</desc>
    <defs></defs>
    <g id="Page-1" stroke="none" stroke-width="1" fill="none" fill-rule="evenodd" sketch:type="MSPage">
        <g id="Desktop_v1" sketch:type="MSArtboardGroup" transform="translate(-329.000000, -1788.000000)">
            <g id="hr" sketch:type="MSLayerGroup" transform="translate(324.000000, 1029.000000)"></g>
            <g id="Интернет-банкинг" sketch:type="MSLayerGroup" transform="translate(329.000000, 1696.000000)" fill="#01703C">
                <g id="сбер" transform="translate(0.000000, 92.000000)" sketch:type="MSShapeGroup">
                    <path d="M13.3600315,10.405509 L6.86698677,6.66201846 C6.404734,7.17220161 5.97016695,7.70815409 5.56600477,8.26591139 L13.3600315,12.7621637 L30.1227507,3.09742651 C29.420967,2.68511725 28.6910031,2.3181521 27.9387918,2 L13.3600315,10.405509 Z M13.3600315,15.120305 L4.45783408,9.98601408 C4.11991989,10.5787086 3.81438811,11.1899869 3.5432163,11.8158842 L13.3600315,17.4744819 L33.6541642,5.77471109 C33.1343152,5.27419144 32.5852973,4.80291006 32.0113129,4.36532704 L13.3600315,15.120305 Z M13.3600315,19.8303932 L2.82487054,13.7582474 C2.68199241,14.2230864 2.55715945,14.6951111 2.44987725,15.1725871 C2.40167442,15.3879096 2.3571795,15.6042233 2.31663969,15.8220237 L13.3600315,22.1905168 L36.3023534,8.96168327 C36.0764181,8.6197441 35.8401007,8.28523839 35.5931539,7.95841392 C35.4843885,7.81569148 35.3736456,7.67445574 35.2609251,7.53545003 C35.2003626,7.45962874 35.1393057,7.38479857 35.0775072,7.31021619 L13.3600315,19.8303932 Z M13.3600315,24.5456848 L2.04274874,18.0205934 C2.02099567,18.3474179 2.00665842,18.676968 2.00146734,19.0092436 C1.98614132,20.2340301 2.09095157,21.4603033 2.3121902,22.6684883 C2.71388044,24.8593768 3.48166499,26.8894548 4.54534076,28.7104048 C5.89180645,31.0276621 7.7138734,33.0052103 9.85556218,34.5342731 C11.2971976,35.5635595 12.8908573,36.3884258 14.5665854,36.9729436 C15.2972908,37.2284068 16.0559292,37.4392693 16.822725,37.6052833 C17.9051875,37.8339861 19.0232459,37.9677883 20.1657766,38 L21.2067105,38 C21.8170325,37.9821597 22.4325455,37.9345856 23.0502833,37.8552953 C25.6591687,37.5210374 28.1931544,36.6376945 30.4391591,35.2612655 C32.6090279,33.9306761 34.4676796,32.1771228 35.918214,30.1341602 C37.4443897,27.9866335 38.5179532,25.5199637 39.0345887,22.8895099 C39.1013311,22.5507919 39.1591745,22.2091005 39.2073773,21.8649313 C39.3238057,21.0177646 39.3846154,20.1515187 39.3846154,19.271397 C39.3846154,19.1073653 39.3826378,18.9433336 39.3781883,18.7797975 C39.357424,18.0084521 39.2877153,17.2301688 39.1680734,16.4489122 C38.8615529,14.4552581 38.2425791,12.5195851 37.3282085,10.7268823 L13.3600315,24.5456848 Z" id="sber"></path>
                </g>
            </g>
        </g>
    </g>
</svg>