<?xml version="1.0" encoding="UTF-8" standalone="no"?>
<svg width="110px" height="45px" viewBox="0 0 110 45" version="1.1" xmlns="http://www.w3.org/2000/svg" xmlns:xlink="http://www.w3.org/1999/xlink">
    <!-- Generator: Sketch 3.7.1 (28215) - http://www.bohemiancoding.com/sketch -->
    <title>связной</title>
    <desc>Created with Sketch.</desc>
    <defs>
        <polygon id="path-1" points="105.344983 10.6197209 105.344983 0.160042934 1.10138094e-20 0.160042934 0 10.6197209"></polygon>
    </defs>
    <g id="Page-1" stroke="none" stroke-width="1" fill="none" fill-rule="evenodd">
        <g id="01_Sposobi_Desktop" transform="translate(-460.000000, -3795.000000)">
            <g id="Наличные" transform="translate(329.000000, 3695.000000)">
                <g id="6" transform="translate(1.000000, 100.000000)">
                    <g id="связной" transform="translate(133.000000, 10.000000)">
                        <g id="Group-3" transform="translate(0.000000, 3.463949)">
                            <mask id="mask-2" fill="white">
                                <use xlink:href="#path-1"></use>
                            </mask>
                            <g id="Clip-2"></g>
                            <path d="M80.767449,0.160042934 C77.0703164,0.160042934 72.3093913,1.48551699 72.3093913,5.43349553 C72.3093913,9.29722668 77.1242239,10.6197209 80.767449,10.6197209 C84.4133831,10.6197209 89.2252359,9.29722668 89.2252359,5.43349553 C89.2252359,1.48551699 84.4643108,0.160042934 80.767449,0.160042934 L80.767449,0.160042934 Z M13.4589389,10.1112568 C15.9665852,10.3317628 18.0852308,10.449059 20.4070452,10.449059 C23.7975282,10.449059 28.1894986,10.2648525 28.1894986,7.61932226 C28.1894986,6.07740557 26.4587703,5.26472987 24.9677812,5.26472987 L24.9677812,5.16124917 C26.39186,4.9930253 27.5453177,4.0267539 27.5453177,2.89090417 C27.5453177,0.535228214 23.7975282,0.348583695 20.2729537,0.348583695 C17.9327186,0.348583695 16.0516453,0.434185535 13.4589389,0.671757731 L13.4589389,10.1112568 Z M33.6980854,10.1112568 L35.6281901,6.94371786 L37.5786118,6.94371786 L37.5786118,10.1112568 L42.7485837,10.1112568 L42.7485837,0.671757731 C40.5462326,0.434185535 37.4090335,0.348583695 36.4262377,0.348583695 C32.2547733,0.348583695 28.323861,0.62028827 28.323861,3.80787324 C28.323861,5.17858625 29.5274337,5.9928873 30.8832476,6.33285663 L28.0713897,10.1112568 L33.6980854,10.1112568 Z M94.4799969,10.1112568 L100.073644,5.38283874 L100.073644,10.1112568 L105.3452,10.1112568 L105.3452,0.671757731 L100.665543,0.671757731 L95.0710831,5.40044672 L95.0710831,0.671757731 L89.8016938,0.671757731 L89.8016938,10.1112568 L94.4799969,10.1112568 Z M57.3420721,10.1112568 L62.7157547,10.1112568 L62.7157547,6.5847861 L66.3763169,6.5847861 L66.3763169,10.1112568 L71.7673366,10.1112568 L71.7673366,0.671757731 L66.3763169,0.671757731 L66.3763169,3.94331919 L62.7157547,3.94331919 L62.7157547,0.671757731 L57.3420721,0.671757731 L57.3420721,10.1112568 Z M12.3550544,3.89130795 L12.3550544,1.09434909 C10.9846123,0.519787375 9.40639612,0.160042934 7.54265985,0.160042934 C3.91514643,0.160042934 -5.41783798e-05,1.53671556 -5.41783798e-05,5.43349553 C-5.41783798e-05,9.19482954 3.89997649,10.6197209 7.61038283,10.6197209 C9.37226374,10.6197209 11.0853841,10.2995267 12.3550544,9.75747202 L12.3550544,6.95861692 C11.2890948,7.39773269 10.2372216,7.63584666 9.11816714,7.63584666 C7.52667723,7.63584666 5.77915359,7.11139995 5.77915359,5.43349553 C5.77915359,3.80787324 7.28910503,3.17994582 8.9152691,3.17994582 C9.96605878,3.17994582 11.238438,3.46709123 12.3550544,3.89130795 L12.3550544,3.89130795 Z M80.767449,8.00859392 C79.5487064,8.00859392 77.8510268,7.34843036 77.8510268,5.41670023 C77.8510268,3.36550677 79.5297439,2.77333708 80.767449,2.77333708 C82.0056959,2.77333708 83.6803496,3.36550677 83.6803496,5.41670023 C83.6803496,7.34843036 81.9872752,8.00859392 80.767449,8.00859392 L80.767449,8.00859392 Z M45.9516095,6.24725479 L49.3764958,6.24725479 C50.4272855,6.24725479 50.7320388,6.5847861 50.7320388,7.0092737 C50.7320388,7.68948326 49.9870861,7.9926113 48.7304186,7.9926113 C47.2911699,7.9926113 45.3597107,7.61932226 43.9675972,7.24765857 L43.5626139,9.60198007 C45.1549164,10.0763118 47.0538686,10.5522688 49.6977736,10.5522688 C53.0890693,10.5522688 56.6485888,9.73932226 56.6485888,7.53399131 C56.6485888,6.02891592 54.9709553,5.36550166 53.5298104,5.26472987 L53.5298104,5.19754868 C54.6824554,4.97541733 55.8502704,4.17980782 55.8502704,2.99303041 C55.8502704,0.977052901 53.01945,0.212054178 50.0529129,0.212054178 C47.9006767,0.212054178 45.5601707,0.671757731 43.9854761,1.09434909 L44.3086501,3.36550677 C45.7143082,3.01036749 47.4927135,2.65468643 48.8179167,2.65468643 C49.9870861,2.65468643 50.5957802,2.87492154 50.5957802,3.51530999 C50.5957802,3.926253 50.3595625,4.26513877 49.4271526,4.26513877 L45.9516095,4.26513877 L45.9516095,6.24725479 Z M18.6291817,7.9926113 L18.6291817,6.07740557 L21.3064063,6.07740557 C22.222021,6.07740557 22.7470095,6.33285663 22.7470095,7.04367697 C22.7470095,7.75395553 22.222021,7.9926113 21.3064063,7.9926113 L18.6291817,7.9926113 Z M18.6291817,4.48537388 L18.6291817,2.67121084 L21.2053637,2.67121084 C21.7964498,2.67121084 22.4747631,2.8397056 22.4747631,3.55079683 C22.4747631,4.26513877 21.7964498,4.48537388 21.2053637,4.48537388 L18.6291817,4.48537388 Z M37.5786118,4.88981549 L35.0704237,4.88981549 C33.9519111,4.88981549 33.5612849,4.31606645 33.5612849,3.77319908 C33.5612849,3.23060261 33.9519111,2.67121084 35.0704237,2.67121084 L37.5786118,2.67121084 L37.5786118,4.88981549 Z" id="Fill-1" fill="#6E6E6E" mask="url(#mask-2)"></path>
                        </g>
                        <polygon id="Fill-4" fill="#D4AB4F" points="99.9044718 3.30414976 96.0388444 8.12675695e-05 96.0388444 6.61011449"></polygon>
                        <polygon id="Fill-6" fill="#AAB9DF" points="0 24.6511628 20.9580935 24.6511628 20.9580935 18.4883721 0 18.4883721"></polygon>
                        <polygon id="Fill-8" fill="#D4AB4F" points="20.9534884 24.6511628 41.9115819 24.6511628 41.9115819 18.4883721 20.9534884 18.4883721"></polygon>
                        <polygon id="Fill-9" fill="#ABCB78" points="41.9069767 24.6511628 62.8653412 24.6511628 62.8653412 18.4883721 41.9069767 18.4883721"></polygon>
                        <polygon id="Fill-10" fill="#E4D95F" points="62.8604651 24.6511628 83.8185587 24.6511628 83.8185587 18.4883721 62.8604651 18.4883721"></polygon>
                        <polygon id="Fill-11" fill="#AC8CB6" points="83.8139535 24.6511628 104.772047 24.6511628 104.772047 18.4883721 83.8139535 18.4883721"></polygon>
                    </g>
                </g>
            </g>
        </g>
    </g>
</svg>