<?xml version="1.0" encoding="UTF-8" standalone="no"?>
<svg width="70px" height="30px" viewBox="0 0 70 30" version="1.1" xmlns="http://www.w3.org/2000/svg" xmlns:xlink="http://www.w3.org/1999/xlink" xmlns:sketch="http://www.bohemiancoding.com/sketch/ns">
    <!-- Generator: Sketch 3.5.2 (25235) - http://www.bohemiancoding.com/sketch -->
    <title>visa_big</title>
    <desc>Created with Sketch.</desc>
    <defs></defs>
    <g id="Page-1" stroke="none" stroke-width="1" fill="none" fill-rule="evenodd" sketch:type="MSPage">
        <g id="01_Sposobi_Desktop" sketch:type="MSArtboardGroup" transform="translate(-328.000000, -870.000000)" fill="#242D69">
            <g id="Банковские-карты" sketch:type="MSLayerGroup" transform="translate(328.000000, 770.000000)">
                <g id="visa" transform="translate(2.000000, 105.000000)" sketch:type="MSShapeGroup">
                    <path d="M19.4610778,20.3446108 L25.5130838,0.389221557 L30.9127545,0.389221557 L24.8603593,20.3446108 L19.4610778,20.3446108" id="Fill-74"></path>
                    <path d="M12.2853892,8.84856287 C11.0488323,11.064012 10.3256587,12.183024 9.97847305,13.5830539 L9.90452096,13.5830539 C9.99053892,11.8078144 9.74299401,9.6289521 9.72002994,8.39745509 L9.18329341,0.389221557 L0.0934131737,0.389221557 L0,0.926347305 C2.33532934,0.926347305 3.72017964,2.09907186 4.10122754,4.49901198 L5.87296407,20.3387725 L11.4672455,20.3387725 L22.7791916,0.389221557 L17.1428743,0.389221557 L12.2853892,8.84856287 Z" id="Fill-75"></path>
                    <path d="M58.6638623,8.53523952 C58.6039222,7.06047904 58.5541018,5.05871257 58.6537425,3.84745509 L58.5743413,3.84745509 C58.2462275,4.83841317 56.8341317,7.81284431 56.2133234,9.27631737 L54.2041617,13.65 L58.9386527,13.65 L58.6638623,8.53523952 L58.6638623,8.53523952 Z M59.283503,20.3060778 L59.1344311,17.3386527 L52.3919461,17.3332036 L51.0125449,20.3060778 L45.1497006,20.3060778 L55.7801198,0.389221557 L62.9764371,0.389221557 L64.7761976,20.3060778 L59.283503,20.3060778 L59.283503,20.3060778 Z" id="Fill-76"></path>
                    <path d="M36.9507485,20.9599701 C33.1383234,20.9599701 30.6083832,19.7510479 28.8023952,18.6732934 L31.3747605,14.744491 C32.9958683,15.6513772 34.269012,16.697994 37.1986826,16.697994 C38.1405988,16.697994 39.0478743,16.4531737 39.5635928,15.5606886 C40.3147904,14.2626347 39.3903892,13.5643713 37.2811976,12.3702395 L36.2392515,11.692994 C33.1126347,9.55616766 31.7600898,7.52637725 33.2321257,3.98368263 C34.1736527,1.71802395 36.6584431,0 40.7569461,0 C43.5830838,0 46.2329042,1.22254491 47.7773353,2.41706587 L44.8200299,5.88541916 C43.3125749,4.66715569 42.0643413,4.05023952 40.6347305,4.05023952 C39.4950898,4.05023952 38.6294611,4.49005988 38.3301497,5.08284431 C37.7677246,6.19718563 38.5119162,6.95694611 40.1555988,7.97670659 L41.394491,8.76488024 C45.1905689,11.1593713 46.095509,13.6702395 45.1438623,16.0172455 C43.5067964,20.0581437 40.3027246,20.9599701 36.9507485,20.9599701" id="Fill-77"></path>
                </g>
            </g>
        </g>
    </g>
</svg>