<?xml version="1.0" encoding="UTF-8" standalone="no"?>
<svg width="40px" height="40px" viewBox="0 0 40 40" version="1.1" xmlns="http://www.w3.org/2000/svg" xmlns:xlink="http://www.w3.org/1999/xlink" xmlns:sketch="http://www.bohemiancoding.com/sketch/ns">
    <!-- Generator: Sketch 3.5.2 (25235) - http://www.bohemiancoding.com/sketch -->
    <title>webmoney</title>
    <desc>Created with Sketch.</desc>
    <defs></defs>
    <g id="Page-1" stroke="none" stroke-width="1" fill="none" fill-rule="evenodd" sketch:type="MSPage">
        <g id="Desktop_v1" sketch:type="MSArtboardGroup" transform="translate(-329.000000, -1354.000000)">
            <g id="hr" sketch:type="MSLayerGroup" transform="translate(324.000000, 1029.000000)"></g>
            <g id="Электронные-деньги" sketch:type="MSLayerGroup" transform="translate(328.000000, 1100.000000)" fill="#0068A3">
                <g id="webmoney" transform="translate(1.000000, 254.000000)" sketch:type="MSShapeGroup">
                    <g transform="translate(2.000000, 2.000000)">
                        <path d="M17.8398,0 C20.64096,0 23.2938,0.65232 25.65648,1.81044 C26.02764,1.98648 26.39772,2.18016 26.76888,2.394 L25.12656,3.86388 L22.65912,1.31256 L18.49464,5.02704 L16.02108,2.3274 L8.26344,9.32004 L13.23684,14.80104 L11.2824,16.52004 L16.18092,22.00932 L14.238,23.72436 L21.23784,31.51584 L25.39296,27.69048 L28.9854,31.7898 C28.2708,32.34528 27.49248,32.868 26.63496,33.35112 C24.0372,34.83252 21.0348,35.68068 17.8398,35.68068 C8.01396,35.68068 0,27.66564 0,17.84088 C0,8.01396 8.01396,0 17.8398,0" id="Fill-1"></path>
                        <path d="M14.4,16.78032 L18.64224,12.96 L22.4622,17.20332 L18.22032,21.0222 L14.4,16.78032" id="Fill-2"></path>
                        <path d="M17.64,23.97924 L21.8826,20.16 L25.70292,24.40224 L21.46068,28.22256 L17.64,23.97924" id="Fill-3"></path>
                        <path d="M11.52,9.57924 L15.76224,5.76 L19.58112,10.00224 L15.33888,13.82148 L11.52,9.57924" id="Fill-4"></path>
                        <path d="M19.08,7.54416 L22.26168,4.68 L25.1262,7.86168 L21.94452,10.72692 L19.08,7.54416" id="Fill-5"></path>
                        <path d="M24.84,20.50524 L28.02276,17.64 L30.88728,20.8224 L27.7056,23.68692 L24.84,20.50524" id="Fill-6"></path>
                        <path d="M27.72,26.9856 L30.90096,24.12 L33.7662,27.30168 L30.58452,30.1662 L27.72,26.9856" id="Fill-7"></path>
                        <path d="M28.8,12.3498 L30.92112,10.44 L32.83056,12.56112 L30.71052,14.47056 L28.8,12.3498" id="Fill-8"></path>
                        <path d="M26.28,5.86944 L28.40112,3.96 L30.31092,6.08112 L28.18944,7.99056 L26.28,5.86944" id="Fill-9"></path>
                        <path d="M31.68,18.4698 L33.80112,16.56 L35.71092,18.68076 L33.5898,20.59056 L31.68,18.4698" id="Fill-10"></path>
                        <path d="M22.32,13.6656 L25.50132,10.8 L28.36584,13.98168 L25.18524,16.8462 L22.32,13.6656" id="Fill-11"></path>
                    </g>
                </g>
            </g>
        </g>
    </g>
</svg>