<?xml version="1.0" encoding="UTF-8"?>
<!DOCTYPE svg PUBLIC "-//W3C//DTD SVG 1.1//EN" "http://www.w3.org/Graphics/SVG/1.1/DTD/svg11.dtd">
<!-- Creator: CorelDRAW -->
<svg xmlns="http://www.w3.org/2000/svg" xml:space="preserve" width="100%" height="100%" style="shape-rendering:geometricPrecision; text-rendering:geometricPrecision; image-rendering:optimizeQuality; fill-rule:evenodd; clip-rule:evenodd"
viewBox="0 0 21 21"
 version="1.1"
 xmlns:xlink="http://www.w3.org/1999/xlink"
 xmlns:xodm="http://www.corel.com/coreldraw/odm/2003">
 <defs>
  <style type="text/css">
   <![CDATA[
    .str0 {stroke:#999999;stroke-width:0.2}
    .fil2 {fill:white}
    .fil1 {fill:url(#id0);fill-rule:nonzero}
    .fil0 {fill:url(#id1);fill-rule:nonzero}
   ]]>
  </style>
  <linearGradient id="id0" gradientUnits="userSpaceOnUse" x1="10.5421" y1="18.7528" x2="10.5421" y2="2.07364">
   <stop offset="0" style="stop-color:#1FB038"/>
   <stop offset="1" style="stop-color:#5FD66A"/>
   <stop offset="1" style="stop-color:#5FD66A"/>
  </linearGradient>
  <linearGradient id="id1" gradientUnits="userSpaceOnUse" x1="10.5005" y1="20.6204" x2="10.5005" y2="0.37957">
   <stop offset="0" style="stop-color:#F8F8F8"/>
   <stop offset="1" style="stop-color:white"/>
   <stop offset="1" style="stop-color:white"/>
  </linearGradient>
 </defs>
 <g id="Слой_x0020_1">
  <metadata id="CorelCorpID_0Corel-Layer"/>
  <path class="fil0 str0" d="M0.42474 20.6204l1.42337 -5.19727c-0.87792,-1.52105 -1.33981,-3.24661 -1.33916,-5.01432 0.00223,-5.53014 4.50284,-10.0293 10.0332,-10.0293 2.68377,0.00117 5.20275,1.04572 7.09715,2.94142 1.89414,1.89583 2.93685,4.41586 2.93593,7.09596 -0.00234,5.52989 -4.50361,10.0298 -10.0331,10.0298 -0.0004,0 0.00026,0 0,0l-0.00431 0c-1.67906,-0.00065 -3.32899,-0.42179 -4.79442,-1.22097l-5.31871 1.39464z"/>
  <path class="fil1" d="M5.98987 17.41l0 0 0.30465 0.18061c1.28013,0.75961 2.74777,1.16142 4.24438,1.16221l0.00328 0c4.59618,0 8.33705,-3.73996 8.33901,-8.33654 0.00066,-2.22764 -0.86577,-4.32222 -2.44024,-5.89786 -1.57459,-1.57564 -3.66813,-2.4439 -5.89565,-2.44481 -4.59983,0 -8.34057,3.73943 -8.3424,8.33588 -0.00064,1.57511 0.44008,3.10909 1.27491,4.43649l0.19849 0.31535 -0.84267 3.0762 3.15624 -0.82753z"/>
  <path class="fil2" d="M8.14862 6.21604c-0.18778,-0.41747 -0.38549,-0.42583 -0.56413,-0.43314 -0.14612,-0.00627 -0.3134,-0.00588 -0.48042,-0.00588 -0.16715,0 -0.43877,0.06281 -0.66847,0.31366 -0.22983,0.25086 -0.87752,0.8573 -0.87752,2.09067 0,1.23351 0.89842,2.42534 1.02365,2.59275 0.12537,0.16714 1.73429,2.77911 4.28238,3.78396 2.1177,0.83508 2.54863,0.66898 3.00829,0.6272 0.45965,-0.0418 1.48319,-0.60631 1.69212,-1.19173 0.20894,-0.58528 0.20894,-1.08698 0.14625,-1.19184 -0.06267,-0.10447 -0.22982,-0.16714 -0.48055,-0.29251 -0.25072,-0.12536 -1.48318,-0.73193 -1.71301,-0.81551 -0.22983,-0.08357 -0.39698,-0.12535 -0.56412,0.12564 -0.16715,0.25071 -0.64731,0.81524 -0.79357,0.98238 -0.14625,0.16754 -0.29252,0.18844 -0.54323,0.06308 -0.25073,-0.12576 -1.05812,-0.39019 -2.01595,-1.24423 -0.74525,-0.66441 -1.2484,-1.48498 -1.39466,-1.73597 -0.14625,-0.25073 -0.01567,-0.38653 0.11008,-0.51151 0.11257,-0.11229 0.25073,-0.29263 0.37609,-0.43902 0.1251,-0.14638 0.16689,-0.25085 0.25046,-0.418 0.08357,-0.16741 0.04179,-0.3138 -0.02089,-0.43916 -0.06268,-0.12535 -0.5499,-1.36513 -0.7728,-1.86084z"/>
 </g>
</svg>
