<?xml version="1.0" encoding="utf-8"?>
<!-- Generator: Adobe Illustrator 15.0.2, SVG Export Plug-In . SVG Version: 6.00 Build 0)  -->
<!DOCTYPE svg PUBLIC "-//W3C//DTD SVG 1.1//EN" "http://www.w3.org/Graphics/SVG/1.1/DTD/svg11.dtd">
<svg version="1.1" id="Layer_1" xmlns="http://www.w3.org/2000/svg" xmlns:xlink="http://www.w3.org/1999/xlink" x="0px" y="0px"
	 width="110.014px" height="49.152px" viewBox="0 0 110.014 49.152" enable-background="new 0 0 110.014 49.152"
	 xml:space="preserve">
<g>
	<g>
		<path fill="#FF0000" d="M12.492,15.87H8.969c-3.46,0-6.395,2.635-6.395,7.749c0,3.068,1.422,5.33,3.955,6.445l-4.727,8.555
			c-0.154,0.279,0,0.495,0.246,0.495h2.193c0.186,0,0.31-0.062,0.37-0.216l4.296-8.4h1.545v8.4c0,0.092,0.093,0.216,0.216,0.216
			h1.916c0.186,0,0.248-0.093,0.248-0.247V16.18C12.833,15.963,12.709,15.87,12.492,15.87 M10.453,28.515H9.154
			c-2.038,0-4.017-1.487-4.017-5.207c0-3.875,1.854-5.456,3.739-5.456h1.576V28.515z"/>
		<path d="M24.105,23.575h-1.916c-0.154,0-0.248,0.124-0.248,0.216v5.92h-3.553v-5.92c0-0.154-0.061-0.216-0.215-0.216h-1.916
			c-0.154,0-0.247,0.092-0.247,0.216v15.063c0,0.154,0.062,0.248,0.216,0.248h1.947c0.123,0,0.215-0.094,0.215-0.248v-7.189h3.553
			v7.189c0,0.154,0.094,0.248,0.248,0.248h1.916c0.154,0,0.217-0.124,0.217-0.248V23.791C24.322,23.667,24.229,23.575,24.105,23.575
			"/>
		<path d="M67.842,38.11l-0.247-1.054c-0.03-0.093-0.062-0.123-0.153-0.123c-0.155,0-0.989,0.339-2.195,0.339
			c-2.347,0-3.491-2.261-3.491-5.856c0-3.161,0.958-6.291,2.565-6.291c0.432,0,0.958,0.123,1.791,0.898
			c0.093,0.094,0.155,0.123,0.247,0.123c0.094,0,0.186-0.061,0.279-0.217l0.834-1.362c0.062-0.094,0.093-0.188,0.093-0.28
			c0-0.124-0.123-0.216-0.309-0.309c-1.269-0.651-2.132-0.774-2.874-0.774c-2.904,0-5.16,3.47-5.16,8.894
			c0,4.68,2.163,7.376,5.253,7.376c1.299,0,2.688-0.619,3.244-1.022C67.842,38.358,67.872,38.234,67.842,38.11"/>
		<path d="M54.414,30.579l3.707-6.787c0.063-0.093,0.03-0.217-0.093-0.217h-1.822c-0.525,0-0.711,0.186-0.896,0.588l-2.782,5.796
			c-0.153,0.341-0.308,0.557-0.463,0.651v-6.819c0-0.123-0.062-0.217-0.186-0.217h-2.008c-0.093,0-0.186,0.094-0.186,0.217v15.093
			c0,0.094,0.062,0.217,0.186,0.217h2.008c0.124,0,0.186-0.093,0.186-0.217v-7.778c0.093,0.063,0.155,0.154,0.217,0.278l3.521,7.252
			c0.186,0.372,0.463,0.465,0.865,0.465h1.978c0.124,0,0.154-0.123,0.093-0.217L54.414,30.579z"/>
		<path d="M36.711,37.15H36.34c-0.463,0-0.587-0.187-0.587-0.558V23.792c0-0.155-0.062-0.217-0.186-0.217h-6.179
			c-0.155,0-0.247,0.093-0.247,0.217v1.116c0,3.75-0.216,8.584-2.194,12.242h-0.68c-0.186,0-0.247,0.093-0.247,0.248v4.523
			c0,0.155,0.124,0.217,0.216,0.217h1.484c0.339,0,0.463-0.248,0.463-0.465v-2.571h6.613v2.819c0,0.123,0.091,0.217,0.214,0.217
			h1.577c0.185,0,0.37-0.154,0.37-0.465v-4.275C36.958,37.243,36.864,37.15,36.711,37.15 M33.374,37.15h-4.479
			c1.575-2.696,2.193-5.734,2.41-9.453c0.061-0.806,0.092-1.643,0.092-2.169h1.978V37.15z"/>
		<path d="M43.014,23.203c-3.336,0-4.819,4.215-4.819,8.802c0,4.68,2.101,7.469,5.19,7.469c1.513,0,2.842-0.588,3.521-1.023
			c0.125-0.062,0.155-0.154,0.125-0.277l-0.247-1.054c-0.032-0.124-0.093-0.186-0.248-0.186c-0.123,0-1.019,0.339-2.286,0.339
			c-2.379,0-3.491-2.075-3.491-4.802v-0.734c0,0,1.205,0.146,1.916,0.146h4.511V30.58C47.185,25.776,45.484,23.203,43.014,23.203
			 M42.674,29.929c-0.711,0-1.824,0.123-1.824,0.123s0-0.464,0.063-0.961c0.278-2.633,0.927-3.966,2.009-3.966
			c0.989,0,1.605,1.363,1.762,3.749c0.029,0.496,0.029,1.055,0.029,1.055H42.674z"/>
	</g>
	<g>
		<path fill="#FFCC00" d="M78.535,20.513c0-2.213,0.188-3.618,4.77-7.039C87.101,10.64,99.265,0.96,99.265,0.96v16.16h9.25v23.258
			h-27.09c-1.589,0-2.89-1.302-2.89-2.89V20.513z"/>
		<g>
			<g>
				<polygon fill="#D6AB05" points="99.265,17.12 99.265,26.483 82.266,38.063 103.758,31.07 103.758,17.12 				"/>
				<path d="M91.496,16.635c0.993-1.185,2.445-1.603,3.244-0.934c0.797,0.669,0.637,2.172-0.356,3.355
					c-0.994,1.185-2.446,1.603-3.243,0.934C90.344,19.322,90.503,17.819,91.496,16.635"/>
			</g>
		</g>
	</g>
</g>
</svg>
